<svg width="20" height="20" viewBox="0 0 20 20" fill="none" xmlns="http://www.w3.org/2000/svg">
<path fill-rule="evenodd" clip-rule="evenodd" d="M10 20C15.5228 20 20 15.5228 20 10C20 4.47715 15.5228 0 10 0C4.47715 0 0 4.47715 0 10C0 15.5228 4.47715 20 10 20ZM10 18.5C14.6944 18.5 18.5 14.6944 18.5 10C18.5 5.30558 14.6944 1.5 10 1.5C5.30558 1.5 1.5 5.30558 1.5 10C1.5 14.6944 5.30558 18.5 10 18.5Z" fill="#FFB287"/>
<path d="M10.9167 11.8666H9.07056L9.00521 4H10.9821L10.9167 11.8666ZM8.85 14.9217C8.85 14.6059 8.94803 14.3445 9.14408 14.1375C9.34558 13.9251 9.63148 13.8189 10.0018 13.8189C10.3721 13.8189 10.658 13.9251 10.8595 14.1375C11.061 14.3445 11.1618 14.6059 11.1618 14.9217C11.1618 15.2321 11.061 15.4908 10.8595 15.6978C10.658 15.8993 10.3721 16 10.0018 16C9.63148 16 9.34558 15.8993 9.14408 15.6978C8.94803 15.4908 8.85 15.2321 8.85 14.9217Z" fill="#FFB287"/>
</svg>
