<svg width="180" height="36" viewBox="0 0 180 36" fill="none" xmlns="http://www.w3.org/2000/svg">
<path d="M50.5456 25.004C50.3722 24.588 50.1382 24.0593 49.8436 23.418C49.5662 22.7767 49.2629 22.0833 48.9336 21.338C48.6042 20.5927 48.2489 19.83 47.8676 19.05C47.5036 18.2527 47.1569 17.5073 46.8276 16.814C46.4982 16.1033 46.1862 15.4707 45.8916 14.916C45.6142 14.3613 45.3889 13.9367 45.2156 13.642C45.0249 15.6873 44.8689 17.906 44.7476 20.298C44.6262 22.6727 44.5222 25.0733 44.4356 27.5H41.9656C42.0349 25.94 42.1129 24.3713 42.1996 22.794C42.2862 21.1993 42.3816 19.6393 42.4856 18.114C42.6069 16.5713 42.7282 15.072 42.8496 13.616C42.9882 12.16 43.1356 10.782 43.2916 9.482H45.5016C45.9696 10.2447 46.4722 11.146 47.0096 12.186C47.5469 13.226 48.0842 14.318 48.6216 15.462C49.1589 16.5887 49.6789 17.724 50.1816 18.868C50.6842 19.9947 51.1436 21.026 51.5596 21.962C51.9756 21.026 52.4349 19.9947 52.9376 18.868C53.4402 17.724 53.9602 16.5887 54.4976 15.462C55.0349 14.318 55.5722 13.226 56.1096 12.186C56.6469 11.146 57.1496 10.2447 57.6176 9.482H59.8276C60.4169 15.2887 60.8589 21.2947 61.1536 27.5H58.6836C58.5969 25.0733 58.4929 22.6727 58.3716 20.298C58.2502 17.906 58.0942 15.6873 57.9036 13.642C57.7302 13.9367 57.4962 14.3613 57.2016 14.916C56.9242 15.4707 56.6209 16.1033 56.2916 16.814C55.9622 17.5073 55.6069 18.2527 55.2256 19.05C54.8616 19.83 54.5149 20.5927 54.1856 21.338C53.8562 22.0833 53.5442 22.7767 53.2496 23.418C52.9722 24.0593 52.7469 24.588 52.5736 25.004H50.5456Z" fill="white"/>
<path d="M69.528 25.758C70.1 25.758 70.6027 25.7493 71.036 25.732C71.4867 25.6973 71.8593 25.6453 72.154 25.576V21.546C71.9807 21.4593 71.6947 21.39 71.296 21.338C70.9147 21.2687 70.4467 21.234 69.892 21.234C69.528 21.234 69.138 21.26 68.722 21.312C68.3233 21.364 67.9507 21.4767 67.604 21.65C67.2747 21.806 66.9973 22.0313 66.772 22.326C66.5467 22.6033 66.434 22.976 66.434 23.444C66.434 24.3107 66.7113 24.9173 67.266 25.264C67.8207 25.5933 68.5747 25.758 69.528 25.758ZM69.32 13.642C70.2907 13.642 71.1053 13.772 71.764 14.032C72.44 14.2747 72.9773 14.63 73.376 15.098C73.792 15.5487 74.0867 16.0947 74.26 16.736C74.4333 17.36 74.52 18.0533 74.52 18.816V27.266C74.312 27.3007 74.0173 27.3527 73.636 27.422C73.272 27.474 72.856 27.526 72.388 27.578C71.92 27.63 71.4087 27.6733 70.854 27.708C70.3167 27.76 69.7793 27.786 69.242 27.786C68.4793 27.786 67.7773 27.708 67.136 27.552C66.4947 27.396 65.94 27.1533 65.472 26.824C65.004 26.4773 64.64 26.0267 64.38 25.472C64.12 24.9173 63.99 24.25 63.99 23.47C63.99 22.7247 64.1373 22.0833 64.432 21.546C64.744 21.0087 65.16 20.5753 65.68 20.246C66.2 19.9167 66.8067 19.674 67.5 19.518C68.1933 19.362 68.9213 19.284 69.684 19.284C69.9267 19.284 70.178 19.3013 70.438 19.336C70.698 19.3533 70.9407 19.388 71.166 19.44C71.4087 19.4747 71.6167 19.5093 71.79 19.544C71.9633 19.5787 72.0847 19.6047 72.154 19.622V18.946C72.154 18.5473 72.1107 18.1573 72.024 17.776C71.9373 17.3773 71.7813 17.0307 71.556 16.736C71.3307 16.424 71.0187 16.1813 70.62 16.008C70.2387 15.8173 69.736 15.722 69.112 15.722C68.3147 15.722 67.6127 15.7827 67.006 15.904C66.4167 16.008 65.9747 16.1207 65.68 16.242L65.394 14.24C65.706 14.1013 66.226 13.9713 66.954 13.85C67.682 13.7113 68.4707 13.642 69.32 13.642Z" fill="white"/>
<path d="M78.536 14.37C79.0907 14.2313 79.8273 14.084 80.746 13.928C81.6646 13.772 82.722 13.694 83.918 13.694C84.9927 13.694 85.8853 13.85 86.596 14.162C87.3067 14.4567 87.87 14.8813 88.286 15.436C88.7193 15.9733 89.0227 16.6233 89.196 17.386C89.3693 18.1487 89.456 18.9893 89.456 19.908V27.5H87.038V20.428C87.038 19.596 86.9773 18.8853 86.856 18.296C86.752 17.7067 86.57 17.23 86.31 16.866C86.05 16.502 85.7033 16.242 85.27 16.086C84.8367 15.9127 84.2993 15.826 83.658 15.826C83.398 15.826 83.1293 15.8347 82.852 15.852C82.5747 15.8693 82.306 15.8953 82.046 15.93C81.8033 15.9473 81.578 15.9733 81.37 16.008C81.1793 16.0427 81.0407 16.0687 80.954 16.086V27.5H78.536V14.37Z" fill="white"/>
<path d="M91.4226 30.022C91.6133 30.1087 91.856 30.1867 92.1506 30.256C92.4626 30.3427 92.766 30.386 93.0606 30.386C94.014 30.386 94.7593 30.1693 95.2966 29.736C95.834 29.32 96.3193 28.6353 96.7526 27.682C95.6606 25.602 94.638 23.4007 93.6846 21.078C92.7486 18.738 91.9686 16.372 91.3446 13.98H93.9446C94.1353 14.76 94.3606 15.6007 94.6206 16.502C94.898 17.4033 95.2013 18.3307 95.5306 19.284C95.86 20.2373 96.2153 21.1907 96.5966 22.144C96.978 23.0973 97.3766 24.016 97.7926 24.9C98.4513 23.08 99.0233 21.2773 99.5086 19.492C99.994 17.7067 100.453 15.8693 100.887 13.98H103.383C102.759 16.528 102.065 18.9807 101.303 21.338C100.54 23.678 99.7166 25.8707 98.8326 27.916C98.486 28.696 98.122 29.3633 97.7406 29.918C97.3766 30.49 96.9693 30.958 96.5186 31.322C96.068 31.686 95.5566 31.9547 94.9846 32.128C94.43 32.3013 93.7973 32.388 93.0866 32.388C92.896 32.388 92.6966 32.3707 92.4886 32.336C92.2806 32.3187 92.0726 32.284 91.8646 32.232C91.674 32.1973 91.492 32.154 91.3186 32.102C91.1626 32.05 91.05 32.0067 90.9806 31.972L91.4226 30.022Z" fill="white"/>
<path d="M108.792 26.096C108.792 26.564 108.636 26.9713 108.324 27.318C108.012 27.6647 107.588 27.838 107.05 27.838C106.513 27.838 106.088 27.6647 105.776 27.318C105.464 26.9713 105.308 26.564 105.308 26.096C105.308 25.628 105.464 25.2207 105.776 24.874C106.088 24.5273 106.513 24.354 107.05 24.354C107.588 24.354 108.012 24.5273 108.324 24.874C108.636 25.2207 108.792 25.628 108.792 26.096Z" fill="white"/>
<path d="M117.028 25.706C119.663 25.706 120.98 24.8047 120.98 23.002C120.98 22.4473 120.859 21.9793 120.616 21.598C120.391 21.1993 120.079 20.8613 119.68 20.584C119.282 20.2893 118.822 20.038 118.302 19.83C117.8 19.622 117.262 19.414 116.69 19.206C116.032 18.9807 115.408 18.7293 114.818 18.452C114.229 18.1573 113.718 17.8193 113.284 17.438C112.851 17.0393 112.504 16.5713 112.244 16.034C112.002 15.4967 111.88 14.8467 111.88 14.084C111.88 12.5067 112.418 11.276 113.492 10.392C114.567 9.508 116.049 9.066 117.938 9.066C119.03 9.066 120.018 9.18733 120.902 9.43C121.804 9.65533 122.462 9.90666 122.878 10.184L122.072 12.238C121.708 12.0127 121.162 11.796 120.434 11.588C119.724 11.3627 118.892 11.25 117.938 11.25C117.453 11.25 117.002 11.302 116.586 11.406C116.17 11.51 115.806 11.666 115.494 11.874C115.182 12.082 114.931 12.3507 114.74 12.68C114.567 12.992 114.48 13.3647 114.48 13.798C114.48 14.2833 114.576 14.6907 114.766 15.02C114.957 15.3493 115.226 15.644 115.572 15.904C115.919 16.1467 116.318 16.372 116.768 16.58C117.236 16.788 117.748 16.996 118.302 17.204C119.082 17.516 119.793 17.828 120.434 18.14C121.093 18.452 121.656 18.8247 122.124 19.258C122.61 19.6913 122.982 20.2113 123.242 20.818C123.502 21.4073 123.632 22.1267 123.632 22.976C123.632 24.5533 123.052 25.7667 121.89 26.616C120.746 27.4653 119.126 27.89 117.028 27.89C116.318 27.89 115.659 27.838 115.052 27.734C114.463 27.6473 113.934 27.5433 113.466 27.422C112.998 27.2833 112.591 27.1447 112.244 27.006C111.915 26.85 111.655 26.72 111.464 26.616L112.218 24.536C112.617 24.7613 113.224 25.0127 114.038 25.29C114.853 25.5673 115.85 25.706 117.028 25.706Z" fill="white"/>
<path d="M131.412 20.064C131.932 20.4627 132.478 20.9567 133.05 21.546C133.64 22.1353 134.212 22.7767 134.766 23.47C135.338 24.146 135.876 24.8393 136.378 25.55C136.881 26.2433 137.306 26.8933 137.652 27.5H134.818C134.454 26.8933 134.03 26.278 133.544 25.654C133.076 25.0127 132.582 24.406 132.062 23.834C131.542 23.2447 131.014 22.7073 130.476 22.222C129.939 21.7367 129.428 21.3293 128.942 21V27.5H126.524V7.74L128.942 7.324V19.648C129.358 19.232 129.818 18.7727 130.32 18.27C130.823 17.7673 131.317 17.256 131.802 16.736C132.288 16.216 132.747 15.722 133.18 15.254C133.614 14.7687 133.986 14.344 134.298 13.98H137.132C136.734 14.4133 136.3 14.89 135.832 15.41C135.364 15.93 134.879 16.4587 134.376 16.996C133.874 17.516 133.362 18.0447 132.842 18.582C132.34 19.102 131.863 19.596 131.412 20.064Z" fill="white"/>
<path d="M142.526 27.5H140.108V13.98H142.526V27.5ZM141.304 11.536C140.871 11.536 140.498 11.3973 140.186 11.12C139.892 10.8253 139.744 10.4353 139.744 9.95C139.744 9.46466 139.892 9.08333 140.186 8.806C140.498 8.51133 140.871 8.364 141.304 8.364C141.738 8.364 142.102 8.51133 142.396 8.806C142.708 9.08333 142.864 9.46466 142.864 9.95C142.864 10.4353 142.708 10.8253 142.396 11.12C142.102 11.3973 141.738 11.536 141.304 11.536Z" fill="white"/>
<path d="M146.684 14.37C147.239 14.2313 147.976 14.084 148.894 13.928C149.813 13.772 150.87 13.694 152.066 13.694C153.141 13.694 154.034 13.85 154.744 14.162C155.455 14.4567 156.018 14.8813 156.434 15.436C156.868 15.9733 157.171 16.6233 157.344 17.386C157.518 18.1487 157.604 18.9893 157.604 19.908V27.5H155.186V20.428C155.186 19.596 155.126 18.8853 155.004 18.296C154.9 17.7067 154.718 17.23 154.458 16.866C154.198 16.502 153.852 16.242 153.418 16.086C152.985 15.9127 152.448 15.826 151.806 15.826C151.546 15.826 151.278 15.8347 151 15.852C150.723 15.8693 150.454 15.8953 150.194 15.93C149.952 15.9473 149.726 15.9733 149.518 16.008C149.328 16.0427 149.189 16.0687 149.102 16.086V27.5H146.684V14.37Z" fill="white"/>
<path d="M164.76 25.758C165.748 25.758 166.476 25.628 166.944 25.368C167.429 25.108 167.672 24.692 167.672 24.12C167.672 23.5307 167.438 23.0627 166.97 22.716C166.502 22.3693 165.731 21.9793 164.656 21.546C164.136 21.338 163.633 21.13 163.148 20.922C162.68 20.6967 162.273 20.4367 161.926 20.142C161.579 19.8473 161.302 19.492 161.094 19.076C160.886 18.66 160.782 18.1487 160.782 17.542C160.782 16.346 161.224 15.4013 162.108 14.708C162.992 13.9973 164.197 13.642 165.722 13.642C166.103 13.642 166.485 13.668 166.866 13.72C167.247 13.7547 167.603 13.8067 167.932 13.876C168.261 13.928 168.547 13.9887 168.79 14.058C169.05 14.1273 169.249 14.188 169.388 14.24L168.946 16.32C168.686 16.1813 168.279 16.0427 167.724 15.904C167.169 15.748 166.502 15.67 165.722 15.67C165.046 15.67 164.457 15.8087 163.954 16.086C163.451 16.346 163.2 16.762 163.2 17.334C163.2 17.6287 163.252 17.8887 163.356 18.114C163.477 18.3393 163.651 18.5473 163.876 18.738C164.119 18.9113 164.413 19.076 164.76 19.232C165.107 19.388 165.523 19.5527 166.008 19.726C166.649 19.9687 167.221 20.2113 167.724 20.454C168.227 20.6793 168.651 20.948 168.998 21.26C169.362 21.572 169.639 21.9533 169.83 22.404C170.021 22.8373 170.116 23.3747 170.116 24.016C170.116 25.264 169.648 26.2087 168.712 26.85C167.793 27.4913 166.476 27.812 164.76 27.812C163.564 27.812 162.628 27.708 161.952 27.5C161.276 27.3093 160.817 27.162 160.574 27.058L161.016 24.978C161.293 25.082 161.735 25.238 162.342 25.446C162.949 25.654 163.755 25.758 164.76 25.758Z" fill="white"/>
<path d="M20.1728 26.9261L27.5139 14.2111L20.1729 1.49609L5.49084 1.49609L20.1728 26.9261Z" fill="white"/>
<path d="M7.34212 9.0781L0.00231934 21.791L7.34211 34.5039L22.0217 34.5039L7.34212 9.0781Z" fill="white"/>
</svg>
