<svg width="94" height="34" viewBox="0 0 94 34" fill="none" xmlns="http://www.w3.org/2000/svg">
<path d="M15.6636 19.0706C16.3877 19.2598 17.9704 19.6732 18.222 18.6732C18.4798 17.6507 16.9449 17.3101 16.1959 17.1439C16.1123 17.1253 16.0384 17.1089 15.9779 17.094L15.4906 19.0262C15.5402 19.0384 15.5984 19.0536 15.6636 19.0706Z" fill="white"/>
<path d="M16.3464 16.2472C16.9502 16.4065 18.2671 16.7541 18.4965 15.8452C18.7307 14.9156 17.4508 14.6353 16.8257 14.4985C16.7554 14.4831 16.6933 14.4695 16.6427 14.457L16.2008 16.2095C16.2426 16.2198 16.2916 16.2327 16.3464 16.2472Z" fill="white"/>
<path fill-rule="evenodd" clip-rule="evenodd" d="M14.7259 24.7619C19.0596 25.8306 23.4484 23.2224 24.5288 18.9367C25.6091 14.6508 22.9722 10.3093 18.6387 9.24086C14.3063 8.17238 9.91743 10.7808 8.83761 15.067C7.75677 19.3525 10.3939 23.6934 14.7259 24.7619ZM18.4707 13.8425C19.5912 14.2243 20.4107 14.7965 20.2497 15.861C20.1332 16.6402 19.6964 17.0175 19.1165 17.1497C19.9128 17.5597 20.318 18.1885 19.932 19.2784C19.453 20.6322 18.315 20.7464 16.8017 20.4632L16.4344 21.9189L15.5469 21.7001L15.9094 20.2639C15.6794 20.2074 15.4443 20.1474 15.2022 20.0824L14.8384 21.5254L13.952 21.3067L14.3192 19.8482C14.2364 19.8272 14.153 19.8057 14.069 19.784C13.9429 19.7515 13.8155 19.7186 13.6866 19.6867L12.5317 19.4019L12.9722 18.3972C12.9722 18.3972 13.6261 18.5692 13.6173 18.5564C13.8686 18.6179 13.98 18.456 14.024 18.348L14.6044 16.0467C14.6261 16.0519 14.6474 16.0572 14.668 16.0623C14.6782 16.0648 14.6883 16.0673 14.6981 16.0697C14.6628 16.0557 14.6306 16.0467 14.6059 16.0405L15.0199 14.3978C15.0308 14.2113 14.9658 13.976 14.6064 13.8873C14.6203 13.878 13.9618 13.7288 13.9618 13.7288L14.1979 12.7913L15.4218 13.0935L15.4208 13.098C15.6048 13.1433 15.7944 13.1863 15.9875 13.2298L16.3512 11.7883L17.2382 12.0071L16.8818 13.4203C17.1199 13.474 17.3595 13.5283 17.5928 13.5858L17.9467 12.1818L18.8342 12.4005L18.4707 13.8425Z" fill="white"/>
<path d="M32.2992 13.841C32.9552 13.841 33.5219 13.9572 33.9981 14.1855C34.4766 14.416 34.8714 14.7265 35.1881 15.117C35.5005 15.5095 35.7331 15.9682 35.8832 16.494C36.0324 17.0212 36.1072 17.5879 36.1072 18.1947C36.1072 19.1267 35.9345 20.0072 35.586 20.8371C35.2374 21.6684 34.7645 22.3894 34.1629 23.0044C33.5618 23.6186 32.852 24.1028 32.0336 24.4606C31.2164 24.8186 30.3279 24.9976 29.3739 24.9976C29.2506 24.9976 29.0337 24.9941 28.7273 24.9878C28.421 24.9816 28.0689 24.9503 27.6746 24.8976C27.2777 24.8428 26.8581 24.7618 26.415 24.6533C25.9722 24.5468 25.5515 24.3976 25.1555 24.2081L28.6973 9.48932L31.8695 9.00307L30.6014 14.2262C30.8728 14.1052 31.1463 14.0115 31.4193 13.9432C31.6926 13.876 31.9858 13.841 32.2992 13.841ZM29.6383 22.5086C30.116 22.5086 30.5662 22.3924 30.9891 22.1641C31.4133 21.9356 31.7793 21.6271 32.0859 21.2429C32.3925 20.8569 32.6351 20.4221 32.8121 19.9364C32.989 19.4507 33.0785 18.9439 33.0785 18.4167C33.0785 17.7689 32.9691 17.2637 32.7509 16.8985C32.5328 16.5347 32.1291 16.3517 31.5429 16.3517C31.3508 16.3517 31.1034 16.388 30.7965 16.4527C30.4886 16.5215 30.2131 16.6642 29.9662 16.879L28.6159 22.4259C28.6973 22.4401 28.7693 22.4536 28.8307 22.4664C28.8909 22.4801 28.9574 22.4899 29.0236 22.4966C29.0936 22.5044 29.1737 22.5084 29.2705 22.5084C29.3674 22.5084 29.4884 22.5086 29.6383 22.5086Z" fill="white"/>
<path d="M39.397 24.7161H36.3671L38.9258 14.067H41.9765L39.397 24.7161ZM40.8714 12.7695C40.4485 12.7695 40.0651 12.645 39.7248 12.3955C39.3818 12.1475 39.212 11.7658 39.212 11.2513C39.212 10.9683 39.2701 10.7028 39.3854 10.4523C39.5024 10.2023 39.6553 9.98707 39.8469 9.80408C40.0383 9.62258 40.26 9.47758 40.5117 9.36833C40.765 9.26083 41.0344 9.20709 41.3216 9.20709C41.7442 9.20709 42.1256 9.33158 42.4671 9.58108C42.8074 9.83183 42.9785 10.2136 42.9785 10.7253C42.9785 11.0093 42.9206 11.2758 42.8043 11.5258C42.6888 11.7758 42.5359 11.991 42.3443 12.174C42.1545 12.3558 41.9308 12.5003 41.6795 12.6085C41.426 12.7178 41.1575 12.7695 40.8714 12.7695Z" fill="white"/>
<path d="M44.6319 11.4134L47.8054 10.9272L47.0262 14.0661H50.4249L49.8112 16.5356H46.4329L45.533 20.2605C45.4501 20.571 45.4031 20.861 45.39 21.1305C45.3751 21.4013 45.4097 21.6338 45.4916 21.8295C45.573 22.0258 45.7193 22.177 45.9317 22.284C46.143 22.3928 46.4455 22.4475 46.8424 22.4475C47.1692 22.4475 47.4877 22.4168 47.7956 22.3558C48.1017 22.2958 48.4118 22.2123 48.7258 22.103L48.9518 24.412C48.5423 24.5605 48.0989 24.6882 47.6212 24.7957C47.1427 24.9047 46.5762 24.9572 45.9216 24.9572C44.9802 24.9572 44.2505 24.819 43.7306 24.5437C43.2114 24.2665 42.8443 23.8877 42.6247 23.4082C42.4081 22.9305 42.3113 22.3798 42.3383 21.7593C42.3664 21.1373 42.4611 20.4835 42.6247 19.7951L44.6319 11.4134Z" fill="white"/>
<path d="M50.2913 20.4633C50.2913 19.5461 50.4415 18.6811 50.7415 17.8713C51.0411 17.0609 51.4725 16.3521 52.0324 15.7439C52.5903 15.1386 53.27 14.6591 54.07 14.3071C54.8662 13.9572 55.7577 13.7807 56.7402 13.7807C57.3552 13.7807 57.9045 13.8382 58.3878 13.9534C58.8731 14.0697 59.3122 14.2199 59.7093 14.4084L58.6643 16.7584C58.3913 16.6489 58.108 16.5524 57.815 16.4649C57.5218 16.3756 57.1639 16.3326 56.7405 16.3326C55.7292 16.3326 54.9297 16.6774 54.3346 17.3646C53.7419 18.0523 53.4434 18.9781 53.4434 20.1393C53.4434 20.8275 53.5935 21.384 53.8948 21.8098C54.1946 22.2355 54.7484 22.4473 55.5525 22.4473C55.9493 22.4473 56.3323 22.4063 56.699 22.3263C57.0686 22.2453 57.3949 22.1433 57.6823 22.0228L57.9085 24.4317C57.5253 24.5787 57.1027 24.7115 56.6391 24.8277C56.1745 24.94 55.6215 24.9982 54.9802 24.9982C54.1337 24.9982 53.4171 24.8757 52.8309 24.6345C52.2445 24.3895 51.7599 24.0642 51.3783 23.6523C50.9945 23.2393 50.719 22.757 50.5487 22.2035C50.3783 21.6505 50.2913 21.0695 50.2913 20.4633Z" fill="white"/>
<path d="M63.7513 24.9982C63.0281 24.9982 62.3999 24.8892 61.8671 24.6735C61.3358 24.4577 60.8957 24.155 60.5477 23.7625C60.1991 23.372 59.9382 22.9093 59.7595 22.376C59.5808 21.843 59.4949 21.2528 59.4949 20.6061C59.4949 19.7948 59.6266 18.9838 59.8927 18.1751C60.1576 17.3646 60.5507 16.6364 61.0709 15.9891C61.587 15.3409 62.2238 14.8109 62.9735 14.3976C63.7224 13.9872 64.5839 13.7807 65.5515 13.7807C66.2615 13.7807 66.8863 13.8899 67.4265 14.1057C67.9641 14.3209 68.407 14.6261 68.7571 15.0166C69.1034 15.4091 69.3665 15.8699 69.5434 16.4039C69.7216 16.9359 69.8096 17.5276 69.8096 18.1748C69.8096 18.9836 69.6797 19.7946 69.4219 20.6058C69.1638 21.413 68.7808 22.143 68.2753 22.7918C67.7708 23.439 67.1399 23.9688 66.3821 24.3802C65.6253 24.7917 64.7477 24.9982 63.7513 24.9982ZM65.2656 16.3329C64.8164 16.3329 64.4193 16.4619 64.0793 16.7166C63.7381 16.9744 63.4515 17.2984 63.2204 17.6891C62.9869 18.0816 62.8137 18.5096 62.6967 18.9748C62.5807 19.4411 62.5238 19.8818 62.5238 20.3006C62.5238 20.9763 62.634 21.5025 62.8506 21.8813C63.0703 22.258 63.4649 22.4475 64.0384 22.4475C64.4891 22.4475 64.8842 22.3195 65.2262 22.062C65.5654 21.8063 65.8523 21.482 66.0851 21.0905C66.3171 20.7 66.4918 20.2708 66.6088 19.8048C66.7233 19.3401 66.7817 18.8968 66.7817 18.4788C66.7817 17.8048 66.672 17.2774 66.4534 16.8991C66.235 16.5224 65.8386 16.3329 65.2656 16.3329Z" fill="white"/>
<path d="M73.1113 24.7161H70.0788L72.6376 14.067H75.6898L73.1113 24.7161ZM74.5834 12.7695C74.1608 12.7695 73.7776 12.645 73.4379 12.3955C73.0966 12.1475 72.9253 11.7658 72.9253 11.2513C72.9253 10.9683 72.9841 10.7028 73.0997 10.4523C73.2152 10.2023 73.3691 9.98707 73.5607 9.80408C73.751 9.62258 73.9748 9.47758 74.226 9.36833C74.4778 9.26083 74.7472 9.20709 75.0333 9.20709C75.457 9.20709 75.8397 9.33158 76.1804 9.58108C76.5214 9.83183 76.6935 10.2136 76.6935 10.7253C76.6935 11.0093 76.6324 11.2758 76.5179 11.5258C76.4034 11.7758 76.2494 11.991 76.0586 12.174C75.8665 12.3558 75.6455 12.5003 75.3938 12.6085C75.14 12.7178 74.8711 12.7695 74.5834 12.7695Z" fill="white"/>
<path d="M77.8734 14.5511C78.1034 14.4846 78.3602 14.4046 78.6395 14.3176C78.9199 14.2306 79.233 14.1496 79.5829 14.0766C79.9289 14.0014 80.3194 13.9404 80.7489 13.8931C81.1783 13.8449 81.6677 13.8214 82.2114 13.8214C83.8094 13.8214 84.911 14.2816 85.5191 15.1994C86.1268 16.1171 86.2319 17.3731 85.8376 18.9651L84.4439 24.715H81.3939L82.7448 19.0861C82.8272 18.7346 82.8919 18.3948 82.9396 18.0628C82.9879 17.7338 82.9851 17.4438 82.9288 17.1928C82.8749 16.9448 82.748 16.7418 82.5511 16.5846C82.3512 16.4298 82.0491 16.3521 81.6394 16.3521C81.2443 16.3521 80.8424 16.3941 80.4322 16.4751L78.4462 24.7147H75.395L77.8734 14.5511Z" fill="white"/>
</svg>
