<svg width="94" height="34" viewBox="0 0 94 34" fill="none" xmlns="http://www.w3.org/2000/svg">
<path d="M16.6321 32C24.9163 32 31.6321 25.2843 31.6321 17C31.6321 8.71573 24.9163 2 16.6321 2C8.34781 2 1.63208 8.71573 1.63208 17C1.63208 25.2843 8.34781 32 16.6321 32Z" fill="white" fill-opacity="0.28"/>
<path d="M18.2315 18.3798C18.1278 18.3871 17.5925 18.4184 16.4012 18.4184C15.4486 18.4184 14.7806 18.3919 14.5442 18.3798V18.3822C10.8811 18.2207 8.14874 17.584 8.14874 16.8195C8.14874 16.0575 10.8835 15.4184 14.5442 15.2568V17.748C14.783 17.7649 15.4703 17.8059 16.418 17.8059C17.5563 17.8059 18.1254 17.7576 18.2315 17.748V15.2592C21.8875 15.4232 24.6126 16.0599 24.6126 16.8219C24.6126 17.584 21.8851 18.2207 18.2315 18.3846V18.3798ZM18.2315 15.0012V12.7729H23.332V9.375H9.44617V12.7729H14.5467V15.0012C10.4012 15.1917 7.2854 16.0117 7.2854 16.9956C7.2854 17.9795 10.4036 18.7994 14.5467 18.9924V26.1354H18.234V18.9924C22.3722 18.8018 25.4831 17.9819 25.4831 16.998C25.4831 16.0165 22.3722 15.1941 18.234 15.0036" fill="white"/>
<path d="M42.2399 6.7162V9.35833H44.8077V11.3408H42.2222V15.3606C42.2222 16.2484 42.712 16.6816 43.43 16.6816C43.7891 16.6816 44.2046 16.5685 44.5442 16.3987L45.1862 18.3617C44.5265 18.6252 43.9783 18.7384 43.2797 18.7578C41.2601 18.8339 39.939 17.6826 39.939 15.3606V11.3408H38.2024V9.35833H39.939V6.96202L42.2399 6.7162ZM86.5104 9.23453L86.6802 10.3098C87.3982 9.15849 88.3603 8.98871 89.3046 8.98871C90.2667 8.98871 91.1916 9.3654 91.7009 9.87472L90.6628 11.8749C90.1907 11.4787 89.7574 11.2701 89.0022 11.2701C87.7943 11.2701 86.6802 11.912 86.6802 13.6292V18.5368H84.3776V9.231L86.5104 9.23453ZM80.8672 12.8016C80.7169 11.5937 79.7725 10.9889 78.4514 10.9889C77.2064 10.9889 76.186 11.5937 75.8465 12.8016H80.8672ZM75.8093 14.708C75.9596 15.8593 76.9606 16.6905 78.5841 16.6905C79.4329 16.6905 80.5471 16.3686 81.0759 15.8222L82.5472 17.2759C81.5657 18.2945 79.9617 18.7861 78.5452 18.7861C75.3371 18.7861 73.4289 16.8037 73.4289 13.822C73.4289 10.9906 75.3548 8.95157 78.3754 8.95157C81.4897 8.95157 83.435 10.8775 83.076 14.708H75.8093ZM65.6546 5.32617V10.4972C66.4858 9.42199 67.5045 9.10013 68.562 9.10013C71.2042 9.10013 72.3749 10.8934 72.3749 13.631V18.5386H70.0723V13.6504C70.0723 11.9509 69.1845 11.2347 67.9572 11.2347C66.5972 11.2347 65.6546 12.386 65.6546 13.7831V18.5403H63.3521V5.32794L65.6546 5.32617ZM59.5392 6.6101V9.25222H62.1071V11.2347H59.5215V15.2545C59.5215 16.1422 60.0132 16.5755 60.7294 16.5755C61.0884 16.5755 61.504 16.4623 61.8435 16.2926L62.4855 18.2556C61.8259 18.5191 61.2776 18.6323 60.5791 18.6517C58.5595 18.7278 57.2384 17.5747 57.2384 15.2545V11.2347H55.5018V9.25222H57.2384V6.85592L59.5392 6.6101ZM53.178 12.8016C53.0276 11.5937 52.0833 10.9889 50.7622 10.9889C49.5172 10.9889 48.4968 11.5937 48.1572 12.8016H53.178ZM48.1201 14.708C48.2704 15.8593 49.2714 16.6905 50.8948 16.6905C51.7437 16.6905 52.8579 16.3686 53.3866 15.8222L54.858 17.2759C53.8765 18.2945 52.2725 18.7861 50.8559 18.7861C47.6461 18.7861 45.7397 16.8037 45.7397 13.822C45.7397 10.9906 47.6656 8.95157 50.6844 8.95157C53.7987 8.95157 55.7423 10.8775 55.385 14.708H48.1201Z" fill="white"/>
<path d="M43.4705 28.5005V29.375H40.0735V28.5005H43.4705ZM40.3855 22.9766V29.375H39.2825V22.9766H40.3855ZM43.0266 25.6484V26.5098H40.0735V25.6484H43.0266ZM43.4485 22.9766V23.8555H40.0735V22.9766H43.4485Z" fill="white"/>
<path d="M44.6413 22.9766H46.9045C47.3909 22.9766 47.8054 23.0498 48.1482 23.1963C48.4909 23.3428 48.7532 23.5596 48.9348 23.8467C49.1194 24.1309 49.2117 24.4824 49.2117 24.9014C49.2117 25.2207 49.1531 25.502 49.0359 25.7451C48.9187 25.9883 48.7532 26.1934 48.5393 26.3604C48.3254 26.5244 48.0705 26.6519 47.7746 26.7427L47.4407 26.9053H45.406L45.3972 26.0308H46.9221C47.1858 26.0308 47.4055 25.9839 47.5813 25.8901C47.7571 25.7964 47.8889 25.6689 47.9768 25.5078C48.0676 25.3438 48.113 25.1592 48.113 24.9541C48.113 24.7314 48.0691 24.5381 47.9812 24.374C47.8962 24.207 47.7644 24.0796 47.5857 23.9917C47.407 23.9009 47.1799 23.8555 46.9045 23.8555H45.7444V29.375H44.6413V22.9766ZM48.2932 29.375L46.7903 26.501L47.946 26.4966L49.4709 29.3179V29.375H48.2932Z" fill="white"/>
<path d="M54.3596 27.292H55.4582C55.4231 27.7109 55.3059 28.0845 55.1067 28.4126C54.9074 28.7378 54.6276 28.9941 54.2673 29.1816C53.9069 29.3691 53.469 29.4629 52.9533 29.4629C52.5578 29.4629 52.2019 29.3926 51.8855 29.252C51.5691 29.1084 51.2981 28.9062 51.0725 28.6455C50.8469 28.3818 50.674 28.064 50.5539 27.6919C50.4367 27.3198 50.3781 26.9038 50.3781 26.4438V25.9121C50.3781 25.4521 50.4382 25.0361 50.5583 24.6641C50.6814 24.292 50.8571 23.9741 51.0857 23.7104C51.3142 23.4438 51.5881 23.2402 51.9074 23.0996C52.2297 22.959 52.5915 22.8887 52.9929 22.8887C53.5026 22.8887 53.9333 22.9824 54.2849 23.1699C54.6364 23.3574 54.9089 23.6167 55.1023 23.9478C55.2985 24.2788 55.4187 24.6582 55.4626 25.0859H54.364C54.3347 24.8105 54.2702 24.5747 54.1706 24.3784C54.0739 24.1821 53.9304 24.0327 53.74 23.9302C53.5495 23.8247 53.3005 23.772 52.9929 23.772C52.7409 23.772 52.5212 23.8188 52.3337 23.9126C52.1462 24.0063 51.9895 24.144 51.8635 24.3257C51.7375 24.5073 51.6423 24.7314 51.5778 24.998C51.5163 25.2617 51.4856 25.5635 51.4856 25.9033V26.4438C51.4856 26.7661 51.5134 27.0591 51.5691 27.3228C51.6276 27.5835 51.7155 27.8076 51.8327 27.9951C51.9528 28.1826 52.1052 28.3276 52.2898 28.4302C52.4743 28.5327 52.6955 28.584 52.9533 28.584C53.2668 28.584 53.5202 28.5342 53.7136 28.4346C53.9099 28.335 54.0578 28.1899 54.1574 27.9995C54.26 27.8062 54.3274 27.5703 54.3596 27.292Z" fill="white"/>
<path d="M58.756 26.2197V27.0635H56.4313V26.2197H58.756Z" fill="white"/>
<path d="M64.1808 28.5312V29.375H59.8918V28.6499L61.9748 26.3779C62.2033 26.1201 62.3835 25.8975 62.5153 25.71C62.6471 25.5225 62.7394 25.354 62.7922 25.2046C62.8478 25.0522 62.8757 24.9043 62.8757 24.7607C62.8757 24.5586 62.8376 24.3813 62.7614 24.229C62.6882 24.0737 62.5798 23.9521 62.4362 23.8643C62.2926 23.7734 62.1183 23.728 61.9133 23.728C61.6759 23.728 61.4767 23.7793 61.3156 23.8818C61.1545 23.9844 61.0329 24.1265 60.9509 24.3081C60.8688 24.4868 60.8278 24.6919 60.8278 24.9233H59.7687C59.7687 24.5513 59.8537 24.2114 60.0236 23.9038C60.1935 23.5933 60.4396 23.3472 60.7619 23.1655C61.0842 22.981 61.4723 22.8887 61.9264 22.8887C62.3542 22.8887 62.7175 22.9604 63.0163 23.104C63.3151 23.2476 63.5422 23.4512 63.6974 23.7148C63.8556 23.9785 63.9347 24.2905 63.9347 24.6509C63.9347 24.8501 63.9025 25.0479 63.8381 25.2441C63.7736 25.4404 63.6813 25.6367 63.5612 25.833C63.444 26.0264 63.3049 26.2212 63.1437 26.4175C62.9826 26.6108 62.8053 26.8071 62.612 27.0063L61.2277 28.5312H64.1808Z" fill="white"/>
<path d="M69.4474 25.6396V26.6855C69.4474 27.1865 69.3976 27.6143 69.298 27.9688C69.2013 28.3203 69.0607 28.606 68.8761 28.8257C68.6916 29.0454 68.4704 29.2065 68.2125 29.3091C67.9577 29.4116 67.672 29.4629 67.3556 29.4629C67.1037 29.4629 66.8693 29.4307 66.6525 29.3662C66.4386 29.3018 66.2453 29.2007 66.0724 29.063C65.8996 28.9253 65.7516 28.748 65.6286 28.5312C65.5084 28.3115 65.4147 28.0493 65.3473 27.7446C65.2829 27.4399 65.2506 27.0869 65.2506 26.6855V25.6396C65.2506 25.1357 65.3004 24.7109 65.4 24.3652C65.4997 24.0166 65.6417 23.7339 65.8263 23.5171C66.0109 23.2974 66.2306 23.1377 66.4855 23.0381C66.7433 22.9385 67.0304 22.8887 67.3468 22.8887C67.6017 22.8887 67.8361 22.9209 68.0499 22.9854C68.2667 23.0469 68.4601 23.145 68.63 23.2798C68.8029 23.4146 68.9494 23.5903 69.0695 23.8071C69.1925 24.021 69.2863 24.2803 69.3507 24.585C69.4152 24.8867 69.4474 25.2383 69.4474 25.6396ZM68.3883 26.835V25.4814C68.3883 25.2266 68.3737 25.0024 68.3444 24.8091C68.3151 24.6128 68.2711 24.4473 68.2125 24.3125C68.1569 24.1748 68.0866 24.0635 68.0016 23.9785C67.9166 23.8906 67.82 23.8276 67.7116 23.7896C67.6032 23.7485 67.4816 23.728 67.3468 23.728C67.1828 23.728 67.0363 23.7603 66.9074 23.8247C66.7785 23.8862 66.6701 23.9858 66.5822 24.1235C66.4943 24.2612 66.4269 24.4429 66.38 24.6685C66.3361 24.8911 66.3141 25.1621 66.3141 25.4814V26.835C66.3141 27.0928 66.3288 27.3198 66.3581 27.5161C66.3874 27.7124 66.4313 27.8809 66.4899 28.0215C66.5485 28.1592 66.6188 28.2734 66.7008 28.3643C66.7858 28.4521 66.8825 28.5166 66.9909 28.5576C67.1022 28.5986 67.2238 28.6191 67.3556 28.6191C67.5226 28.6191 67.6706 28.5869 67.7995 28.5225C67.9284 28.458 68.0368 28.3555 68.1247 28.2148C68.2125 28.0713 68.2785 27.8853 68.3224 27.6567C68.3664 27.4282 68.3883 27.1543 68.3883 26.835Z" fill="white"/>
</svg>
