<svg width="83" height="34" viewBox="0 0 83 34" fill="none" xmlns="http://www.w3.org/2000/svg">
<path d="M9.46899 24.1159C4.31502 24.1159 0.125732 19.8341 0.125732 14.551C0.125732 9.28864 4.31502 5 9.46899 5.00691C11.3039 5.00691 13.1051 5.56629 14.6297 6.6022C9.74557 10.6975 9.71184 18.4253 14.6297 22.5206C13.1051 23.5496 11.3039 24.1159 9.46899 24.1159Z" fill="white"/>
<path d="M15.2368 22.0648C19.9928 18.2665 19.9726 10.8632 15.2368 7.04418C10.5011 10.8632 10.4809 18.2734 15.2368 22.0648Z" fill="white"/>
<path d="M4.64557 26.3189C5.25272 26.3396 5.63724 26.7333 5.63724 27.3341H5.65073V28.9225H5.09756C5.09756 28.7097 5.1007 28.5132 5.10358 28.3331C5.11957 27.3328 5.1275 26.8369 4.54438 26.8369C3.89417 26.8369 3.90739 27.4142 3.9287 28.3451C3.93282 28.5249 3.93724 28.7179 3.93724 28.9225H3.4043C3.4043 28.7122 3.40743 28.5175 3.41031 28.3387C3.42631 27.3431 3.43445 26.8369 2.85113 26.8369C2.20178 26.8369 2.2141 27.3836 2.23537 28.3272C2.23951 28.511 2.24399 28.7097 2.24399 28.9225H1.69081V26.388H2.24399V26.6918C2.44637 26.4156 2.70272 26.3189 2.95907 26.3189C3.34359 26.3189 3.62018 26.4847 3.78208 26.7678C4.0047 26.4156 4.33526 26.3189 4.64557 26.3189Z" fill="white"/>
<path fill-rule="evenodd" clip-rule="evenodd" d="M8.13327 26.388H8.66621V28.9294H8.13327V28.6117C7.95113 28.8534 7.69478 28.9846 7.34399 28.9846C6.64914 28.9846 6.11621 28.4252 6.11621 27.6518C6.11621 26.8852 6.64914 26.3189 7.34399 26.3189C7.69478 26.3189 7.95113 26.4639 8.13327 26.6918V26.388ZM6.66264 27.6518C6.66264 27.2029 6.93922 26.8438 7.41819 26.8438C7.85668 26.8438 8.14676 27.2029 8.15351 27.6518C8.15351 28.1214 7.85668 28.4598 7.41819 28.4598C6.93922 28.4598 6.66264 28.1007 6.66264 27.6518Z" fill="white"/>
<path d="M10.4104 27.3882C10.853 27.4564 11.3984 27.5404 11.3984 28.1559C11.3984 29.0882 9.9547 29.1987 9.19914 28.6739L9.43526 28.2388C9.92097 28.5841 10.8317 28.6186 10.8317 28.1835C10.8317 27.9955 10.5766 27.9523 10.2737 27.901C9.83128 27.8261 9.28684 27.7339 9.28684 27.1476C9.28684 26.167 10.69 26.1601 11.3241 26.5813L11.1015 27.0302C10.6563 26.7747 9.85351 26.7125 9.85351 27.1062C9.85351 27.3024 10.108 27.3416 10.4104 27.3882Z" fill="white"/>
<path d="M13.638 28.3286L13.7864 28.7982C13.4289 29.0399 12.2618 29.2609 12.2618 28.0454V26.8921H11.7491V26.388H12.2618V25.6145H12.815V26.388H13.6987V26.899H12.815V28.0454C12.815 28.6324 13.3817 28.4736 13.638 28.3286Z" fill="white"/>
<path fill-rule="evenodd" clip-rule="evenodd" d="M16.5388 27.8728H14.6837C14.8388 28.6117 15.6349 28.6531 16.161 28.2112L16.4174 28.6255C15.6618 29.2954 14.1372 29.0606 14.1372 27.6449C14.1372 26.8576 14.6499 26.312 15.365 26.312C16.0396 26.312 16.5388 26.754 16.5388 27.8728ZM14.7039 27.4239C14.7579 27.0648 14.9805 26.823 15.3448 26.823C15.6956 26.823 15.9317 27.0302 15.9924 27.4239H14.7039Z" fill="white"/>
<path d="M17.6452 26.6918C17.888 26.2637 18.3603 26.2498 18.6706 26.388L18.5087 26.9128C18.286 26.7954 17.6452 26.6918 17.6452 27.4929V28.9225H17.092V26.388H17.6452V26.6918Z" fill="white"/>
<path d="M20.7821 27.0717C20.1682 26.609 19.3857 26.8645 19.3857 27.6518C19.3857 28.4252 20.1614 28.6946 20.7821 28.2457L21.0384 28.6946C20.3436 29.3023 18.8325 29.0261 18.8325 27.6587C18.8325 26.3396 20.2559 25.9943 21.0384 26.6228L20.7821 27.0717Z" fill="white"/>
<path fill-rule="evenodd" clip-rule="evenodd" d="M23.3321 26.388H23.8853V28.9294H23.3321V28.6117C22.8261 29.3576 21.315 28.9777 21.315 27.6518C21.315 26.3603 22.7722 25.9322 23.3321 26.6918V26.388ZM21.8817 27.6518C21.8817 27.2029 22.1583 26.8438 22.617 26.8438C23.0757 26.8438 23.3726 27.2029 23.3726 27.6518C23.3726 28.1214 23.0757 28.4598 22.617 28.4598C22.1583 28.4598 21.8817 28.1007 21.8817 27.6518Z" fill="white"/>
<path d="M25.1333 26.6918C25.4166 26.1877 25.9968 26.3051 26.1587 26.388L25.9968 26.9128C25.7404 26.7816 25.1333 26.7333 25.1333 27.4929V28.9225H24.6003V26.388H25.1333V26.6918Z" fill="white"/>
<path fill-rule="evenodd" clip-rule="evenodd" d="M28.3444 25.359H28.8773V28.9294H28.3444V28.6117C27.8452 29.3507 26.3273 28.9915 26.3273 27.6518C26.3273 26.3396 27.7912 25.9391 28.3444 26.6918V25.359ZM27.6293 28.4598C28.0745 28.4598 28.3849 28.1214 28.3849 27.6518C28.3849 27.2029 28.0745 26.8438 27.6293 26.8438C27.1706 26.8438 26.8737 27.2029 26.8737 27.6518C26.8737 28.1007 27.1706 28.4598 27.6293 28.4598Z" fill="white"/>
<path d="M21.0047 5C26.1587 5 30.348 9.28864 30.348 14.551C30.348 19.8341 26.1587 24.1159 21.0047 24.109C19.1833 24.109 17.3686 23.5496 15.844 22.5137C20.7821 18.4391 20.7079 10.6906 15.844 6.59529C17.3686 5.56629 19.1698 5 21.0047 5Z" fill="white"/>
<path d="M46.3645 23.807L44.8533 12.8236L48.5208 15.1598L42.348 10.2065H48.2808L48.8811 16.6669C48.9566 17.4342 49.0174 18.1878 49.0747 18.9632C49.3832 18.221 49.7424 17.4092 50.158 16.514L53.0969 10.2065H56.9986L50.0793 23.8069L46.3645 23.807Z" fill="white"/>
<path d="M56.1697 23.807L58.7179 10.2066H62.2097L59.6648 23.807H56.1697Z" fill="white"/>
<path d="M65.5652 24C63.9718 24 62.5317 23.6289 61.7142 23.0066L61.4744 22.8216L62.6545 19.87L63.0497 20.1098C63.8425 20.5905 64.8547 20.8714 65.8275 20.8714C66.5707 20.8714 67.4434 20.5791 67.4434 19.7638C67.4434 19.3379 67.1991 18.9634 65.9503 18.3091C64.6261 17.5839 63.1138 16.5039 63.1138 14.5571C63.1138 11.8749 65.3254 10 68.4905 10C69.7855 10 70.8225 10.2295 71.6557 10.6953L71.9507 10.8598L70.8349 13.8914L70.4362 13.6698C70.2808 13.5819 69.4375 13.1491 68.3441 13.1491C67.2204 13.1491 66.7429 13.6447 66.7429 14.1025C66.7429 14.5934 67.3611 14.9828 68.3834 15.5617C70.202 16.53 71.0893 17.7518 71.0893 19.2921C71.0894 22.108 68.8712 24 65.5652 24Z" fill="white"/>
<path fill-rule="evenodd" clip-rule="evenodd" d="M79.2463 23.807L78.985 20.4854H75.9595L74.4586 23.807H70.7158L77.2443 10.2066H81.3024L82.8743 23.807H79.2463ZM78.5284 14.3887C78.3888 14.7529 78.2458 15.0989 78.1051 15.4049L77.1074 17.6028H78.8055L78.596 15.2769C78.5809 15.0423 78.5595 14.7756 78.5366 14.4908L78.5365 14.4894L78.5284 14.3887Z" fill="white"/>
</svg>
