<svg width="88" height="34" viewBox="0 0 88 34" fill="none" xmlns="http://www.w3.org/2000/svg">
<path d="M67.0148 11.0318H62.3059C61.984 11.0318 61.71 11.2701 61.6598 11.5933L59.7556 23.8722C59.7181 24.1145 59.902 24.3338 60.1433 24.3338H62.5594C62.7846 24.3338 62.9768 24.167 63.0117 23.9406L63.5518 20.4595C63.6019 20.136 63.876 19.898 64.1981 19.898H65.6881C68.7895 19.898 70.5795 18.3714 71.0474 15.3459C71.258 14.0227 71.0559 12.983 70.4466 12.2551C69.777 11.455 68.59 11.0318 67.0148 11.0318ZM67.5581 15.5163C67.3008 17.2353 66.01 17.2353 64.7612 17.2353H64.051L64.5492 14.0259C64.5794 13.832 64.7439 13.6891 64.9369 13.6891H65.2626C66.1125 13.6891 66.9154 13.6891 67.3291 14.1816C67.5769 14.4762 67.6518 14.9129 67.5581 15.5163Z" fill="white"/>
<path d="M33.4306 11.0318H28.7218C28.4 11.0318 28.1259 11.2701 28.0755 11.5933L26.1713 23.8722C26.1339 24.1145 26.318 24.3338 26.5592 24.3338H28.8076C29.1294 24.3338 29.4035 24.0956 29.4539 23.7721L29.9677 20.4595C30.0179 20.136 30.2919 19.898 30.6138 19.898H32.1039C35.2055 19.898 36.9954 18.3714 37.4633 15.3459C37.6739 14.0227 37.4718 12.983 36.8627 12.2551C36.1925 11.455 35.0057 11.0318 33.4306 11.0318ZM33.9738 15.5163C33.7165 17.2353 32.4255 17.2353 31.1771 17.2353H30.4667L30.9649 14.0259C30.9951 13.832 31.1594 13.6891 31.3526 13.6891H31.6783C32.5282 13.6891 33.3311 13.6891 33.7448 14.1816C33.9924 14.4762 34.0673 14.9129 33.9738 15.5163Z" fill="white"/>
<path d="M47.5045 15.4615H45.2501C45.0568 15.4615 44.8924 15.6044 44.8621 15.7985L44.7631 16.4396L44.6054 16.2074C44.117 15.4864 43.0288 15.2458 41.9421 15.2458C39.4513 15.2458 37.3231 17.1656 36.909 19.8581C36.6933 21.2013 36.9993 22.4849 37.7483 23.3808C38.4363 24.204 39.4182 24.5467 40.5881 24.5467C42.5958 24.5467 43.7096 23.2347 43.7096 23.2347L43.6089 23.8722C43.571 24.1145 43.7551 24.334 43.9966 24.334H46.0271C46.349 24.334 46.6229 24.0958 46.6732 23.7725L47.8922 15.9229C47.9297 15.6803 47.7456 15.4615 47.5045 15.4615ZM44.3623 19.9246C44.1445 21.2349 43.1217 22.1143 41.8172 22.1143C41.1633 22.1143 40.6398 21.9003 40.3033 21.4955C39.9697 21.0939 39.8442 20.5219 39.9501 19.8848C40.153 18.5864 41.1923 17.6784 42.4769 17.6784C43.1171 17.6784 43.637 17.8945 43.9801 18.3032C44.3252 18.7149 44.4611 19.2906 44.3623 19.9246Z" fill="white"/>
<path d="M81.0889 15.4615H78.8344C78.6412 15.4615 78.4768 15.6044 78.4467 15.7985L78.3475 16.4396L78.1898 16.2074C77.7014 15.4864 76.6132 15.2458 75.5265 15.2458C73.0354 15.2458 70.9075 17.1656 70.4936 19.8581C70.2779 21.2013 70.5839 22.4849 71.3329 23.3808C72.0209 24.204 73.0028 24.5467 74.1727 24.5467C76.1804 24.5467 77.2942 23.2347 77.2942 23.2347L77.1935 23.8722C77.1556 24.1145 77.3397 24.334 77.5812 24.334H79.6117C79.9336 24.334 80.2075 24.0958 80.2578 23.7725L81.4768 15.9229C81.5145 15.6803 81.3302 15.4615 81.0889 15.4615ZM77.9467 19.9246C77.7289 21.2349 76.7063 22.1143 75.4018 22.1143C74.7477 22.1143 74.2243 21.9003 73.8876 21.4955C73.5543 21.0939 73.4286 20.5219 73.5344 19.8848C73.7376 18.5864 74.7765 17.6784 76.0611 17.6784C76.7012 17.6784 77.2212 17.8945 77.5645 18.3032C77.9096 18.7149 78.0455 19.2906 77.9467 19.9246Z" fill="white"/>
<path d="M59.5134 15.4613H57.2471C57.0304 15.4613 56.8277 15.5707 56.7058 15.753L53.5796 20.4354L52.2546 15.9361C52.1717 15.6544 51.9169 15.4613 51.628 15.4613H49.4002C49.1312 15.4613 48.942 15.7304 49.0286 15.9895L51.5241 23.4386L49.1769 26.8065C48.9926 27.071 49.1786 27.4365 49.4973 27.4365H51.7613C51.9759 27.4365 52.1767 27.3295 52.2991 27.1502L59.836 16.088C60.0163 15.8233 59.83 15.4613 59.5134 15.4613Z" fill="white"/>
<path d="M83.7464 11.369L81.8136 23.8725C81.7761 24.1149 81.9602 24.334 82.2013 24.334H84.1451C84.467 24.334 84.741 24.0957 84.7914 23.7725L86.6969 11.4936C86.7345 11.2513 86.5504 11.0322 86.3092 11.0322H84.1343C83.9408 11.0318 83.7764 11.1749 83.7464 11.369Z" fill="white"/>
<path d="M16.9441 11.5835C17.1976 9.93971 16.9424 8.82144 16.0681 7.80819C15.1057 6.69293 13.3669 6.21515 11.1423 6.21515H4.6845C4.22992 6.21515 3.84264 6.55153 3.77175 7.00844L1.08281 24.349C1.0299 24.6912 1.28999 25.0004 1.63029 25.0004H5.61693L5.34181 26.7749C5.29547 27.0743 5.52275 27.3448 5.82072 27.3448H9.18094C9.57859 27.3448 9.9172 27.0506 9.9792 26.6509L10.0122 26.477L10.6452 22.3948L10.686 22.1692C10.748 21.7698 11.0866 21.4752 11.4843 21.4752H11.9869C15.2424 21.4752 17.7914 20.1303 18.5361 16.2404C18.8474 14.6151 18.6864 13.2584 17.8634 12.3045C17.6149 12.0166 17.3053 11.7779 16.9441 11.5835Z" fill="white"/>
<path d="M16.9339 11.6752C17.1874 10.0314 16.9322 8.91311 16.058 7.89986C15.0955 6.7846 13.3568 6.30682 11.1321 6.30682H4.67434C4.21976 6.30682 3.83248 6.6432 3.76159 7.10011L1.07265 24.4406C1.01974 24.7828 1.27983 25.0921 1.62013 25.0921H5.60677L6.60819 18.6341L6.57708 18.8366C6.64797 18.3799 7.03165 18.0433 7.48644 18.0433H9.38135C13.1026 18.0433 16.0165 16.5058 16.8677 12.0594C16.8931 11.9281 16.9147 11.8005 16.9339 11.6752Z" fill="white"/>
<path d="M7.6841 11.6969C7.72664 11.4223 7.90017 11.1972 8.1336 11.0835C8.23962 11.0319 8.35835 11.0031 8.48257 11.0031H13.5445C14.1442 11.0031 14.7034 11.0431 15.2144 11.1268C15.3605 11.1507 15.5027 11.1782 15.6409 11.2094C15.7788 11.2407 15.913 11.2753 16.0427 11.314C16.1077 11.3332 16.1714 11.3536 16.2343 11.3747C16.4853 11.4595 16.7189 11.5592 16.9339 11.6752C17.1874 10.0314 16.9322 8.91311 16.058 7.89986C15.0955 6.7846 13.3568 6.30682 11.1321 6.30682H4.67434C4.21976 6.30682 3.83248 6.6432 3.76159 7.10011L1.07265 24.4406C1.01974 24.7828 1.27983 25.0921 1.62013 25.0921H5.60677L6.60819 18.6341L7.6841 11.6969Z" fill="white"/>
</svg>
