<svg width="94" height="34" viewBox="0 0 94 34" fill="none" xmlns="http://www.w3.org/2000/svg">
<path d="M16.9656 32C25.2498 32 31.9656 25.2843 31.9656 17C31.9656 8.71573 25.2498 2 16.9656 2C8.6813 2 1.96558 8.71573 1.96558 17C1.96558 25.2843 8.6813 32 16.9656 32Z" fill="white" fill-opacity="0.28"/>
<path d="M18.565 18.3798C18.4613 18.3871 17.926 18.4184 16.7347 18.4184C15.7821 18.4184 15.1141 18.3919 14.8777 18.3798V18.3822C11.2146 18.2207 8.48224 17.584 8.48224 16.8195C8.48224 16.0575 11.217 15.4184 14.8777 15.2568V17.748C15.1165 17.7649 15.8038 17.8059 16.7515 17.8059C17.8898 17.8059 18.4589 17.7576 18.565 17.748V15.2592C22.221 15.4232 24.9461 16.0599 24.9461 16.8219C24.9461 17.584 22.2186 18.2207 18.565 18.3846V18.3798ZM18.565 15.0012V12.7729H23.6655V9.375H9.77967V12.7729H14.8801V15.0012C10.7347 15.1917 7.6189 16.0117 7.6189 16.9956C7.6189 17.9795 10.7371 18.7994 14.8801 18.9924V26.1354H18.5674V18.9924C22.7057 18.8018 25.8166 17.9819 25.8166 16.998C25.8166 16.0165 22.7057 15.1941 18.5674 15.0036" fill="white"/>
<path d="M42.5733 6.7162V9.35833H45.1412V11.3408H42.5557V15.3606C42.5557 16.2484 43.0455 16.6816 43.7635 16.6816C44.1225 16.6816 44.5381 16.5685 44.8777 16.3987L45.5197 18.3617C44.86 18.6252 44.3118 18.7384 43.6132 18.7578C41.5936 18.8339 40.2725 17.6826 40.2725 15.3606V11.3408H38.5359V9.35833H40.2725V6.96202L42.5733 6.7162ZM86.8439 9.23453L87.0137 10.3098C87.7317 9.15849 88.6938 8.98871 89.6381 8.98871C90.6002 8.98871 91.5251 9.3654 92.0344 9.87472L90.9963 11.8749C90.5242 11.4787 90.0909 11.2701 89.3357 11.2701C88.1278 11.2701 87.0137 11.912 87.0137 13.6292V18.5368H84.7111V9.231L86.8439 9.23453ZM81.2007 12.8016C81.0504 11.5937 80.106 10.9889 78.7849 10.9889C77.5399 10.9889 76.5195 11.5937 76.1799 12.8016H81.2007ZM76.1428 14.708C76.2931 15.8593 77.2941 16.6905 78.9176 16.6905C79.7664 16.6905 80.8806 16.3686 81.4094 15.8222L82.8807 17.2759C81.8992 18.2945 80.2952 18.7861 78.8787 18.7861C75.6706 18.7861 73.7624 16.8037 73.7624 13.822C73.7624 10.9906 75.6883 8.95157 78.7089 8.95157C81.8232 8.95157 83.7685 10.8775 83.4095 14.708H76.1428ZM65.9881 5.32617V10.4972C66.8193 9.42199 67.838 9.10013 68.8955 9.10013C71.5377 9.10013 72.7084 10.8934 72.7084 13.631V18.5386H70.4058V13.6504C70.4058 11.9509 69.518 11.2347 68.2907 11.2347C66.9307 11.2347 65.9881 12.386 65.9881 13.7831V18.5403H63.6856V5.32794L65.9881 5.32617ZM59.8727 6.6101V9.25222H62.4406V11.2347H59.855V15.2545C59.855 16.1422 60.3467 16.5755 61.0629 16.5755C61.4219 16.5755 61.8375 16.4623 62.177 16.2926L62.819 18.2556C62.1594 18.5191 61.6111 18.6323 60.9126 18.6517C58.893 18.7278 57.5719 17.5747 57.5719 15.2545V11.2347H55.8352V9.25222H57.5719V6.85592L59.8727 6.6101ZM53.5115 12.8016C53.3611 11.5937 52.4168 10.9889 51.0957 10.9889C49.8507 10.9889 48.8303 11.5937 48.4907 12.8016H53.5115ZM48.4536 14.708C48.6039 15.8593 49.6049 16.6905 51.2283 16.6905C52.0772 16.6905 53.1914 16.3686 53.7201 15.8222L55.1915 17.2759C54.21 18.2945 52.606 18.7861 51.1894 18.7861C47.9796 18.7861 46.0732 16.8037 46.0732 13.822C46.0732 10.9906 47.9991 8.95157 51.0179 8.95157C54.1322 8.95157 56.0758 10.8775 55.7185 14.708H48.4536Z" fill="white"/>
<path d="M42.2483 22.9766V29.375H41.1541V22.9766H42.2483ZM44.2566 22.9766V23.8555H39.1633V22.9766H44.2566Z" fill="white"/>
<path d="M45.3703 22.9766H47.6335C48.1199 22.9766 48.5344 23.0498 48.8772 23.1963C49.22 23.3428 49.4822 23.5596 49.6638 23.8467C49.8484 24.1309 49.9407 24.4824 49.9407 24.9014C49.9407 25.2207 49.8821 25.502 49.7649 25.7451C49.6477 25.9883 49.4822 26.1934 49.2683 26.3604C49.0544 26.5244 48.7995 26.6519 48.5036 26.7427L48.1697 26.9053H46.135L46.1262 26.0308H47.6511C47.9148 26.0308 48.1345 25.9839 48.3103 25.8901C48.4861 25.7964 48.6179 25.6689 48.7058 25.5078C48.7966 25.3438 48.842 25.1592 48.842 24.9541C48.842 24.7314 48.7981 24.5381 48.7102 24.374C48.6252 24.207 48.4934 24.0796 48.3147 23.9917C48.136 23.9009 47.9089 23.8555 47.6335 23.8555H46.4734V29.375H45.3703V22.9766ZM49.0222 29.375L47.5193 26.501L48.675 26.4966L50.1999 29.3179V29.375H49.0222Z" fill="white"/>
<path d="M55.0886 27.292H56.1872C56.1521 27.7109 56.0349 28.0845 55.8357 28.4126C55.6364 28.7378 55.3567 28.9941 54.9963 29.1816C54.6359 29.3691 54.198 29.4629 53.6823 29.4629C53.2868 29.4629 52.9309 29.3926 52.6145 29.252C52.2981 29.1084 52.0271 28.9062 51.8015 28.6455C51.5759 28.3818 51.403 28.064 51.2829 27.6919C51.1657 27.3198 51.1071 26.9038 51.1071 26.4438V25.9121C51.1071 25.4521 51.1672 25.0361 51.2873 24.6641C51.4104 24.292 51.5861 23.9741 51.8147 23.7104C52.0432 23.4438 52.3171 23.2402 52.6364 23.0996C52.9587 22.959 53.3205 22.8887 53.7219 22.8887C54.2317 22.8887 54.6623 22.9824 55.0139 23.1699C55.3654 23.3574 55.6379 23.6167 55.8313 23.9478C56.0275 24.2788 56.1477 24.6582 56.1916 25.0859H55.093C55.0637 24.8105 54.9992 24.5747 54.8996 24.3784C54.8029 24.1821 54.6594 24.0327 54.469 23.9302C54.2785 23.8247 54.0295 23.772 53.7219 23.772C53.4699 23.772 53.2502 23.8188 53.0627 23.9126C52.8752 24.0063 52.7185 24.144 52.5925 24.3257C52.4665 24.5073 52.3713 24.7314 52.3068 24.998C52.2453 25.2617 52.2146 25.5635 52.2146 25.9033V26.4438C52.2146 26.7661 52.2424 27.0591 52.2981 27.3228C52.3567 27.5835 52.4445 27.8076 52.5617 27.9951C52.6818 28.1826 52.8342 28.3276 53.0188 28.4302C53.2033 28.5327 53.4245 28.584 53.6823 28.584C53.9958 28.584 54.2492 28.5342 54.4426 28.4346C54.6389 28.335 54.7868 28.1899 54.8864 27.9995C54.989 27.8062 55.0564 27.5703 55.0886 27.292Z" fill="white"/>
<path d="M59.485 26.2197V27.0635H57.1603V26.2197H59.485Z" fill="white"/>
<path d="M64.9098 28.5312V29.375H60.6208V28.6499L62.7038 26.3779C62.9323 26.1201 63.1125 25.8975 63.2443 25.71C63.3761 25.5225 63.4684 25.354 63.5212 25.2046C63.5768 25.0522 63.6047 24.9043 63.6047 24.7607C63.6047 24.5586 63.5666 24.3813 63.4904 24.229C63.4172 24.0737 63.3088 23.9521 63.1652 23.8643C63.0217 23.7734 62.8473 23.728 62.6423 23.728C62.405 23.728 62.2057 23.7793 62.0446 23.8818C61.8835 23.9844 61.7619 24.1265 61.6799 24.3081C61.5978 24.4868 61.5568 24.6919 61.5568 24.9233H60.4977C60.4977 24.5513 60.5827 24.2114 60.7526 23.9038C60.9225 23.5933 61.1686 23.3472 61.4909 23.1655C61.8132 22.981 62.2013 22.8887 62.6554 22.8887C63.0832 22.8887 63.4465 22.9604 63.7453 23.104C64.0441 23.2476 64.2712 23.4512 64.4264 23.7148C64.5846 23.9785 64.6637 24.2905 64.6637 24.6509C64.6637 24.8501 64.6315 25.0479 64.5671 25.2441C64.5026 25.4404 64.4103 25.6367 64.2902 25.833C64.173 26.0264 64.0339 26.2212 63.8727 26.4175C63.7116 26.6108 63.5343 26.8071 63.341 27.0063L61.9567 28.5312H64.9098Z" fill="white"/>
<path d="M70.1764 25.6396V26.6855C70.1764 27.1865 70.1266 27.6143 70.027 27.9688C69.9303 28.3203 69.7897 28.606 69.6051 28.8257C69.4206 29.0454 69.1994 29.2065 68.9416 29.3091C68.6867 29.4116 68.401 29.4629 68.0846 29.4629C67.8327 29.4629 67.5983 29.4307 67.3815 29.3662C67.1676 29.3018 66.9743 29.2007 66.8014 29.063C66.6286 28.9253 66.4806 28.748 66.3576 28.5312C66.2374 28.3115 66.1437 28.0493 66.0763 27.7446C66.0119 27.4399 65.9796 27.0869 65.9796 26.6855V25.6396C65.9796 25.1357 66.0294 24.7109 66.1291 24.3652C66.2287 24.0166 66.3708 23.7339 66.5553 23.5171C66.7399 23.2974 66.9596 23.1377 67.2145 23.0381C67.4723 22.9385 67.7594 22.8887 68.0758 22.8887C68.3307 22.8887 68.5651 22.9209 68.779 22.9854C68.9958 23.0469 69.1891 23.145 69.359 23.2798C69.5319 23.4146 69.6784 23.5903 69.7985 23.8071C69.9215 24.021 70.0153 24.2803 70.0797 24.585C70.1442 24.8867 70.1764 25.2383 70.1764 25.6396ZM69.1173 26.835V25.4814C69.1173 25.2266 69.1027 25.0024 69.0734 24.8091C69.0441 24.6128 69.0001 24.4473 68.9416 24.3125C68.8859 24.1748 68.8156 24.0635 68.7306 23.9785C68.6457 23.8906 68.549 23.8276 68.4406 23.7896C68.3322 23.7485 68.2106 23.728 68.0758 23.728C67.9118 23.728 67.7653 23.7603 67.6364 23.8247C67.5075 23.8862 67.3991 23.9858 67.3112 24.1235C67.2233 24.2612 67.1559 24.4429 67.109 24.6685C67.0651 24.8911 67.0431 25.1621 67.0431 25.4814V26.835C67.0431 27.0928 67.0578 27.3198 67.0871 27.5161C67.1164 27.7124 67.1603 27.8809 67.2189 28.0215C67.2775 28.1592 67.3478 28.2734 67.4298 28.3643C67.5148 28.4521 67.6115 28.5166 67.7199 28.5576C67.8312 28.5986 67.9528 28.6191 68.0846 28.6191C68.2516 28.6191 68.3996 28.5869 68.5285 28.5225C68.6574 28.458 68.7658 28.3555 68.8537 28.2148C68.9416 28.0713 69.0075 27.8853 69.0514 27.6567C69.0954 27.4282 69.1173 27.1543 69.1173 26.835Z" fill="white"/>
</svg>
