<svg width="149" height="148" viewBox="0 0 149 148" fill="none" xmlns="http://www.w3.org/2000/svg">
<path d="M74.5 71.1716L101.086 44.5858L103.914 47.4142L77.3284 74L103.914 100.586L101.086 103.414L74.5 76.8284L47.9142 103.414L45.0858 100.586L71.6716 74L45.0858 47.4142L47.9142 44.5858L74.5 71.1716Z" fill="#FF5A5A"/>
<path fill-rule="evenodd" clip-rule="evenodd" d="M74.5 148C115.369 148 148.5 114.869 148.5 74C148.5 33.1309 115.369 0 74.5 0C33.6309 0 0.5 33.1309 0.5 74C0.5 114.869 33.6309 148 74.5 148ZM74.5 144C113.16 144 144.5 112.66 144.5 74C144.5 35.3401 113.16 4 74.5 4C35.8401 4 4.5 35.3401 4.5 74C4.5 112.66 35.8401 144 74.5 144Z" fill="#FF5A5A"/>
</svg>
