<svg width="148" height="148" viewBox="0 0 148 148" fill="none" xmlns="http://www.w3.org/2000/svg">
<path d="M47.1766 78.7315L67.4308 96.0923L103.65 47.8L106.85 50.2L68.0692 101.908L44.5734 81.7685L47.1766 78.7315Z" fill="#6EEFA9"/>
<path fill-rule="evenodd" clip-rule="evenodd" d="M148 74C148 114.869 114.869 148 74 148C33.1309 148 0 114.869 0 74C0 33.1309 33.1309 0 74 0C114.869 0 148 33.1309 148 74ZM144 74C144 112.66 112.66 144 74 144C35.3401 144 4 112.66 4 74C4 35.3401 35.3401 4 74 4C112.66 4 144 35.3401 144 74Z" fill="#6EEFA9"/>
</svg>
