<svg width="73" height="24" viewBox="0 0 73 24" fill="none" xmlns="http://www.w3.org/2000/svg">
<path fill-rule="evenodd" clip-rule="evenodd" d="M5.93085 19.2751C9.99397 20.2782 14.1087 17.8314 15.1212 13.8142C16.1337 9.79604 13.6624 5.72635 9.59928 4.72416C5.53803 3.72291 1.42335 6.16885 0.410847 10.187C-0.601653 14.2042 1.8696 18.2739 5.93085 19.2751ZM9.44178 9.03854C10.4918 9.39666 11.2605 9.93291 11.1105 10.9314C11.0008 11.6617 10.5912 12.0151 10.0474 12.1389C10.7937 12.5232 11.1733 13.1129 10.8115 14.1348C10.3624 15.4042 9.29553 15.511 7.8771 15.2457L7.53303 16.6098L6.70053 16.4054L7.04085 15.0582C6.82522 15.0057 6.60491 14.9495 6.37803 14.8885L6.03678 16.2414L5.20522 16.036L5.55022 14.6692L5.31585 14.6092C5.19631 14.578 5.07662 14.5473 4.95678 14.5173L3.87397 14.2501L4.28647 13.3089C4.28647 13.3089 4.90053 13.4701 4.8921 13.4579C5.12647 13.5151 5.23147 13.3642 5.27272 13.262L5.81647 11.1057C5.8371 11.1095 5.85772 11.1151 5.87647 11.1198L5.9046 11.1264C5.87647 11.1154 5.84766 11.1063 5.81835 11.0992L6.20647 9.55885C6.21678 9.38448 6.15585 9.16416 5.81928 9.08073C5.83241 9.07135 5.2146 8.93166 5.2146 8.93166L5.43585 8.05323L6.58335 8.33635V8.34104C6.75491 8.38323 6.93303 8.42354 7.11397 8.46385L7.45522 7.11291L8.28678 7.31823L7.9521 8.64291C8.17522 8.69354 8.40022 8.74416 8.61866 8.7976L8.95053 7.48135L9.78303 7.6876L9.44178 9.03854ZM6.81022 13.9407C7.48897 14.1189 8.97303 14.506 9.20835 13.5685C9.45022 12.6095 8.01116 12.2907 7.30897 12.1342C7.23116 12.1173 7.16178 12.1014 7.1046 12.0873L6.64803 13.8995L6.81022 13.9407ZM7.45053 11.2942C8.01678 11.4442 9.25053 11.7695 9.46616 10.9173C9.68553 10.0454 8.48553 9.78291 7.90053 9.65448L7.72803 9.61604L7.31366 11.2585L7.45053 11.2942Z" fill="#DC8F39"/>
<path d="M22.4065 9.03573C23.0215 9.03573 23.553 9.14448 23.9993 9.35823C24.4474 9.57385 24.8177 9.86541 25.1149 10.232C25.4074 10.5995 25.6258 11.0298 25.7665 11.5229C25.9071 12.017 25.9765 12.5485 25.9765 13.1167C25.9765 13.9914 25.8143 14.8164 25.488 15.5945C25.1768 16.3504 24.724 17.04 24.154 17.626C23.5832 18.2065 22.905 18.6705 22.1571 18.992C21.37 19.3317 20.5206 19.5032 19.6633 19.4954C19.548 19.4954 19.3446 19.4917 19.0577 19.486C18.7274 19.4761 18.3978 19.4479 18.0705 19.4017C17.6731 19.3454 17.2788 19.2687 16.8893 19.172C16.4823 19.0747 16.0867 18.9349 15.709 18.7548L19.0296 4.95573L22.0033 4.5001L20.8146 9.39666C21.0696 9.28416 21.3255 9.1951 21.5815 9.13135C21.8374 9.06854 22.113 9.03573 22.4065 9.03573ZM19.9127 17.162C20.3599 17.162 20.7818 17.0523 21.1783 16.8385C21.5758 16.6239 21.919 16.3351 22.2068 15.9751C22.4937 15.6132 22.7215 15.2064 22.8874 14.7498C23.0533 14.2951 23.1368 13.8198 23.1368 13.3248C23.1368 12.7182 23.0337 12.2448 22.8302 11.9017C22.6258 11.5614 22.2471 11.3898 21.6977 11.3898C21.5177 11.3898 21.2852 11.4235 20.9974 11.4835C20.7084 11.5491 20.4407 11.6868 20.2193 11.8839L18.9537 17.0842C19.0296 17.0973 19.0971 17.1095 19.1543 17.1217C19.2901 17.1484 19.4283 17.1616 19.5668 17.161H19.9118L19.9127 17.162ZM29.0599 19.2339H26.2193L28.6183 9.25041H31.4777L29.0599 19.2339ZM30.4427 8.03354C30.0462 8.03354 29.6862 7.91729 29.3674 7.68291C29.0458 7.45041 28.8865 7.09229 28.8865 6.61041C28.8865 6.3451 28.9408 6.09666 29.0496 5.86135C29.2607 5.40157 29.6378 5.03856 30.1052 4.8451C30.3424 4.74479 30.5955 4.69416 30.8646 4.69416C31.2602 4.69416 31.6183 4.81135 31.938 5.04479C32.2568 5.27916 32.418 5.63823 32.418 6.11729C32.418 6.38354 32.3637 6.63291 32.254 6.86729C32.1462 7.10166 32.0027 7.30416 31.8227 7.47573C31.6446 7.64635 31.4355 7.78135 31.2002 7.8826C30.9621 7.98573 30.7108 8.03354 30.4427 8.03354ZM33.9677 6.76135L36.9433 6.30573L36.2121 9.24854H39.3987L38.823 11.5642H35.6571L34.8133 15.0554C34.7355 15.346 34.6915 15.6179 34.6793 15.871C34.6652 16.1242 34.698 16.3426 34.7749 16.5273C34.8552 16.7152 35.0021 16.8668 35.1874 16.9529C35.3852 17.0542 35.6693 17.1057 36.0405 17.1057C36.3471 17.1057 36.6462 17.0776 36.9349 17.0195C37.2307 16.9614 37.5221 16.8825 37.8068 16.7832L38.0187 18.9479C37.6343 19.0867 37.219 19.2067 36.7718 19.307C36.3218 19.4101 35.7912 19.4589 35.178 19.4589C34.2949 19.4589 33.6115 19.3295 33.124 19.0707C32.6365 18.811 32.2933 18.4557 32.0871 18.0067C31.8837 17.5585 31.7927 17.042 31.818 16.4598C31.8452 15.8776 31.9333 15.2645 32.0871 14.6195L33.9677 6.76135ZM39.273 15.2439C39.273 14.3842 39.4137 13.5732 39.6949 12.8139C39.9762 12.0545 40.3802 11.3889 40.9052 10.8198C41.4415 10.2428 42.0922 9.78397 42.8158 9.4726C43.5621 9.14448 44.3974 8.97854 45.319 8.97854C45.8955 8.97854 46.4102 9.03291 46.864 9.14073C47.3187 9.24948 47.7302 9.39104 48.1015 9.56729L47.1227 11.7704C46.8614 11.6668 46.5955 11.5751 46.3258 11.4957C46.0521 11.4114 45.7165 11.371 45.319 11.371C44.3712 11.371 43.6221 11.6945 43.0633 12.3385C42.5083 12.9835 42.229 13.8517 42.229 14.9401C42.229 15.5851 42.3696 16.1073 42.6508 16.5057C42.9321 16.9051 43.4515 17.1039 44.2052 17.1039C44.5774 17.1039 44.9365 17.0654 45.2805 16.9904C45.6274 16.9145 45.933 16.8189 46.2021 16.7064L46.414 18.9639C46.0549 19.1017 45.6583 19.2264 45.2233 19.3351C44.7883 19.441 44.2699 19.4945 43.669 19.4945C42.8749 19.4945 42.2037 19.3801 41.6533 19.1542C41.104 18.9245 40.6502 18.6198 40.2921 18.2335C39.9323 17.8461 39.6661 17.3814 39.514 16.8751C39.3524 16.3465 39.2711 15.7966 39.273 15.2439ZM51.8937 19.4954C51.2149 19.4954 50.6262 19.3923 50.1265 19.1907C49.6532 19.0066 49.2294 18.7144 48.889 18.3376C48.5566 17.9592 48.3055 17.5166 48.1512 17.0373C47.979 16.5013 47.8951 15.9408 47.9027 15.3779C47.9027 14.6167 48.0265 13.8573 48.2758 13.0989C48.5162 12.3542 48.8905 11.6597 49.3802 11.0495C49.8696 10.4382 50.4762 9.93078 51.1643 9.55698C51.8665 9.1726 52.6737 8.97854 53.5812 8.97854C54.2468 8.97854 54.8327 9.08167 55.339 9.28323C55.8424 9.48573 56.2577 9.77073 56.5858 10.1373C56.9112 10.5057 57.1577 10.9379 57.3237 11.4385C57.4905 11.9373 57.573 12.4914 57.573 13.0979C57.573 13.8573 57.4512 14.6167 57.2093 15.377C56.9756 16.1187 56.6118 16.813 56.1349 17.4273C55.6529 18.0415 55.0482 18.5486 54.3593 18.916C53.6496 19.3014 52.8274 19.4954 51.8937 19.4954ZM53.313 11.372C52.8912 11.372 52.5199 11.4929 52.2012 11.731C51.875 11.979 51.601 12.289 51.3949 12.6432C51.1765 13.0107 51.0143 13.412 50.9046 13.8489C50.8001 14.2548 50.7457 14.6719 50.7424 15.091C50.7424 15.7248 50.8455 16.2179 51.049 16.5732C51.2552 16.9267 51.6246 17.1039 52.1627 17.1039C52.5846 17.1039 52.9549 16.9839 53.2755 16.7429C53.5943 16.5029 53.8633 16.1992 54.0818 15.8317C54.2983 15.466 54.4624 15.0629 54.5721 14.627C54.679 14.191 54.7343 13.7757 54.7343 13.3839C54.7343 12.752 54.6312 12.257 54.4268 11.9026C54.2215 11.5492 53.8502 11.372 53.313 11.372ZM60.6687 19.2339H57.8252L60.2243 9.25041H63.0855L60.6687 19.2339ZM62.0477 8.03354C61.6609 8.03707 61.2836 7.91393 60.9733 7.68291C60.6537 7.45041 60.4924 7.09229 60.4924 6.61041C60.4924 6.3451 60.5487 6.09666 60.6565 5.86135C60.7643 5.62698 60.9096 5.42541 61.0887 5.25385C61.2668 5.08416 61.4768 4.94823 61.7121 4.8451C61.9483 4.74479 62.2015 4.69416 62.4696 4.69416C62.8662 4.69416 63.2252 4.81135 63.5449 5.04479C63.8637 5.27916 64.0258 5.63823 64.0258 6.11729C64.0258 6.38354 63.9687 6.63291 63.8608 6.86729C63.7572 7.09573 63.6108 7.30224 63.4296 7.47573C63.2478 7.64715 63.0371 7.78491 62.8071 7.8826C62.569 7.98573 62.3168 8.03354 62.0477 8.03354ZM65.1312 9.70323C65.3468 9.64135 65.5877 9.56635 65.8493 9.48479C66.4947 9.29029 67.157 9.1572 67.8274 9.08729C68.2296 9.04041 68.688 9.01885 69.198 9.01885C70.6962 9.01885 71.7293 9.4501 72.2993 10.3107C72.8683 11.1714 72.9668 12.3489 72.5974 13.8414L71.2905 19.232H68.4312L69.6977 13.9548C69.7755 13.6248 69.8355 13.307 69.8805 12.9957C69.9272 12.7256 69.924 12.4491 69.8712 12.1801C69.8242 11.9542 69.6986 11.7522 69.5168 11.6101C69.3293 11.4648 69.0462 11.3917 68.6618 11.3917C68.2915 11.3917 67.9146 11.431 67.5302 11.507L65.6684 19.232H62.8071L65.1312 9.70323Z" fill="white"/>
</svg>
