<svg width="102" height="24" viewBox="0 0 102 24" fill="none" xmlns="http://www.w3.org/2000/svg">
<path d="M6.84595 9.03759L0.172363 12.0728L6.84595 16.0154L13.5173 12.0728L6.84595 9.03759Z" fill="white"/>
<path d="M0.172363 12.0728L6.84595 16.0154L6.84595 1L0.172363 12.0728Z" fill="white"/>
<path d="M6.84595 1L6.84595 16.0154L13.5173 12.0728L6.84595 1Z" fill="white"/>
<path d="M0.172363 13.3374L6.84595 22.739V17.28L0.172363 13.3374Z" fill="white"/>
<path d="M6.84595 17.28V22.739L13.5218 13.3374L6.84595 17.28Z" fill="white"/>
<path d="M26.9858 13.3124C26.9858 13.4861 26.8348 13.6272 26.6543 13.6272H20.2591C20.4184 15.143 21.608 16.5267 23.2799 16.5267C24.4232 16.5267 25.2721 16.1072 25.9108 15.2325C26.0026 15.1111 26.1415 15.0345 26.3182 15.1073C26.3645 15.1262 26.4052 15.1563 26.4368 15.195C26.4683 15.2337 26.4896 15.2797 26.4988 15.3288C26.512 15.4029 26.4968 15.4793 26.4563 15.5428C25.8137 16.62 24.5324 17.148 23.2762 17.148C21.1247 17.148 19.5915 15.3008 19.5915 13.3246C19.5915 11.3483 21.1247 9.5011 23.2762 9.5011C25.4276 9.49731 26.982 11.3408 26.9858 13.3124ZM26.3015 13.0143C26.1627 11.497 24.9527 10.1148 23.2799 10.1148C21.608 10.1148 20.4192 11.4978 20.2591 13.0143H26.3015ZM34.7465 9.65055C34.8289 9.65049 34.9082 9.68239 34.9676 9.73954C35.027 9.79669 35.062 9.87465 35.0651 9.95703C35.0651 10.1346 34.9271 10.2635 34.7465 10.2635H33.032V16.7201C33.0283 16.8023 32.9932 16.88 32.9339 16.937C32.8746 16.994 32.7957 17.0261 32.7134 17.0266C32.6307 17.0271 32.5511 16.9954 32.4913 16.9382C32.4316 16.881 32.3964 16.8028 32.3933 16.7201V10.2643H30.7471C30.5619 10.2643 30.4269 10.1308 30.4269 9.95703C30.4269 9.80379 30.5657 9.65055 30.7463 9.65055H32.3933V7.28745C32.3933 7.138 32.4987 7.00145 32.6497 6.97641C32.8644 6.94455 33.032 7.08565 33.032 7.27986V9.65055H34.7465ZM45.2041 12.7723V16.6837C45.2041 16.8612 45.0448 16.9902 44.8855 16.9902C44.7004 16.9902 44.5653 16.8574 44.5653 16.6837V12.7723C44.5653 11.453 43.7885 10.1346 42.2546 10.1346C40.2882 10.1346 39.4401 11.7838 39.5531 13.474C39.5531 13.518 39.5744 13.716 39.5744 13.7357V16.6716C39.5754 16.7454 39.5501 16.8172 39.5032 16.8741C39.4562 16.9311 39.3906 16.9695 39.3179 16.9826C39.1033 17.0145 38.9356 16.8734 38.9356 16.6792V3.83193C38.9356 3.67869 39.0737 3.52545 39.2542 3.52545C39.3369 3.52499 39.4166 3.55672 39.4763 3.61391C39.5361 3.6711 39.5712 3.74929 39.5744 3.83193V11.1033C40.1244 10.1596 41.1075 9.52234 42.2508 9.52234C44.1284 9.52234 45.2041 11.1026 45.2041 12.7723ZM56.6706 13.3124C56.6706 13.4861 56.5189 13.6272 56.3384 13.6272H49.9394C50.0987 15.143 51.2882 16.5267 52.9602 16.5267C54.1035 16.5267 54.9516 16.1072 55.5904 15.2325C55.6829 15.1111 55.8217 15.0345 55.9977 15.1073C56.0441 15.1261 56.085 15.1562 56.1167 15.1949C56.1484 15.2336 56.1698 15.2797 56.1791 15.3288C56.1923 15.4029 56.1771 15.4793 56.1366 15.5428C55.494 16.62 54.2127 17.148 52.9564 17.148C50.805 17.148 49.271 15.3008 49.271 13.3246C49.271 11.3483 50.805 9.5011 52.9564 9.5011C55.1109 9.49731 56.6661 11.3408 56.6706 13.3124ZM55.9811 13.0143C55.8422 11.497 54.6322 10.1148 52.9602 10.1148C51.2882 10.1148 50.0987 11.4978 49.9394 13.0143H55.9811ZM64.5186 9.93655C64.5186 10.1338 64.4048 10.243 64.2204 10.2666C62.3421 10.529 61.4977 12.0008 61.4977 13.7152V16.6511C61.4986 16.7249 61.4733 16.7966 61.4264 16.8535C61.3794 16.9104 61.3139 16.9489 61.2413 16.9621C61.0274 16.994 60.859 16.8521 60.859 16.6587V9.96841C60.859 9.81896 60.9644 9.68241 61.1154 9.65738C61.3301 9.62552 61.4977 9.76662 61.4977 9.96083V11.3233C62.0235 10.4683 63.0779 9.65434 64.1741 9.65434C64.3335 9.64979 64.5186 9.76283 64.5186 9.93655ZM75.0232 13.3124C75.0232 13.4854 74.8715 13.6265 74.6909 13.6265H68.2957C68.4558 15.1422 69.6446 16.5259 71.3173 16.5259C72.4598 16.5259 73.3087 16.1064 73.9475 15.2317C74.04 15.1103 74.1781 15.0337 74.3548 15.1066C74.4011 15.1254 74.4418 15.1556 74.4734 15.1943C74.5049 15.233 74.5263 15.279 74.5354 15.3281C74.5521 15.429 74.5225 15.4851 74.4937 15.542C73.8504 16.6192 72.5691 17.1472 71.3128 17.1472C69.1613 17.1472 67.6282 15.3 67.6282 13.3238C67.6282 11.3476 69.1613 9.50034 71.3128 9.50034C73.4642 9.49655 75.0186 11.34 75.0224 13.3117L75.0232 13.3124ZM74.3382 13.0135C74.1993 11.4963 72.9893 10.1141 71.3173 10.1141C69.6446 10.1141 68.4558 11.497 68.2957 13.0135H74.3382ZM85.3465 10.0132V16.7194C85.3465 16.8969 85.1864 17.0259 85.0271 17.0259C84.842 17.0259 84.7077 16.8931 84.7077 16.7194V15.4449C84.182 16.4577 83.2413 17.1791 82.0518 17.1791C80.153 17.1791 79.0985 15.5981 79.0985 13.9284V9.99724C79.0985 9.844 79.2373 9.69076 79.4179 9.69076C79.5005 9.6905 79.5799 9.72231 79.6395 9.77948C79.6991 9.83666 79.7341 9.91473 79.7373 9.99724V13.9292C79.7373 15.2484 80.5141 16.5669 82.048 16.5669C84.1995 16.5669 84.7032 14.6354 84.7032 12.5022V9.99724C84.7032 9.81972 84.8883 9.63841 85.1151 9.7029C85.1815 9.7238 85.2396 9.76512 85.2811 9.82096C85.3227 9.87681 85.3456 9.94358 85.3465 10.0132ZM101.523 12.7472V16.6792C101.523 16.8567 101.362 16.9857 101.203 16.9857C101.018 16.9857 100.884 16.8529 100.884 16.6792V12.7472C100.884 11.428 100.106 10.1338 98.5731 10.1338C96.6484 10.1338 95.9171 12.11 95.9171 13.6462V16.6792C95.9171 16.8567 95.7578 16.9857 95.5977 16.9857C95.4134 16.9857 95.2791 16.8529 95.2791 16.6792V12.7472C95.2791 11.428 94.5015 10.1338 92.9676 10.1338C91.0225 10.1338 90.2199 11.6055 90.2912 13.562C90.2912 13.606 90.3124 13.6948 90.2912 13.7152V16.6708C90.2922 16.7452 90.2665 16.8175 90.2187 16.8746C90.171 16.9316 90.1044 16.9697 90.031 16.9819C89.8163 17.0137 89.6486 16.8726 89.6486 16.6784V9.96841C89.6486 9.81896 89.7533 9.68241 89.905 9.65738C90.119 9.62552 90.2874 9.76662 90.2874 9.96083V11.0813C90.8374 10.1376 91.8206 9.52083 92.9638 9.52083C94.2664 9.52083 95.2746 10.3113 95.6865 11.4766C96.2115 10.3356 97.2409 9.52083 98.5685 9.52083C100.447 9.52083 101.523 11.0775 101.523 12.7472Z" fill="white"/>
</svg>
