<svg width="32" height="24" viewBox="0 0 32 24" fill="none" xmlns="http://www.w3.org/2000/svg">
<g clip-path="url(#clip0_3039_953)">
<path d="M10.302 19.116C5.14796 19.116 0.959961 14.834 0.959961 9.55C0.958961 4.289 5.14896 4.65661e-10 10.302 0.007C12.137 0.007 13.938 0.567 15.463 1.602C10.579 5.697 10.545 13.425 15.463 17.521C13.9399 18.5541 12.1433 19.1094 10.303 19.116H10.302Z" fill="#D02D2A"/>
<path d="M16.07 17.065C20.826 13.266 20.806 5.863 16.07 2.045C11.334 5.863 11.314 13.273 16.07 17.065Z" fill="#E5632A"/>
<path d="M5.47896 21.319C6.08596 21.339 6.46996 21.733 6.46996 22.334H6.48396V23.922H5.93096C5.93096 23.71 5.93396 23.513 5.93696 23.333C5.95296 22.333 5.96096 21.837 5.37696 21.837C4.72696 21.837 4.74096 22.414 4.76196 23.345C4.76596 23.525 4.76996 23.718 4.76996 23.923H4.23796C4.23796 23.713 4.24096 23.518 4.24396 23.339C4.25996 22.343 4.26796 21.837 3.68396 21.837C3.03496 21.837 3.04696 22.384 3.06896 23.327C3.07296 23.511 3.07696 23.71 3.07696 23.922H2.52396V21.388H3.07696V21.692C3.15594 21.5755 3.26261 21.4804 3.38741 21.4153C3.51221 21.3502 3.65122 21.3171 3.79196 21.319C4.17696 21.319 4.45296 21.485 4.61496 21.768C4.83796 21.416 5.16896 21.319 5.47896 21.319Z" fill="white"/>
<path fill-rule="evenodd" clip-rule="evenodd" d="M8.96696 21.388H9.49896V23.929H8.96696V23.612C8.78396 23.853 8.52796 23.985 8.17696 23.985C7.48196 23.985 6.94896 23.425 6.94896 22.652C6.94896 21.885 7.48196 21.319 8.17696 21.319C8.52796 21.319 8.78396 21.464 8.96696 21.692V21.388ZM7.49596 22.652C7.49596 22.202 7.77196 21.844 8.25096 21.844C8.68996 21.844 8.97996 22.203 8.98696 22.652C8.98696 23.122 8.68996 23.46 8.25096 23.46C7.77196 23.46 7.49596 23.1 7.49596 22.652Z" fill="white"/>
<path d="M11.244 22.388C11.686 22.456 12.232 22.54 12.232 23.156C12.232 24.088 10.788 24.199 10.032 23.674L10.268 23.239C10.754 23.584 11.665 23.619 11.665 23.183C11.665 22.995 11.41 22.953 11.107 22.901C10.665 22.826 10.12 22.734 10.12 22.148C10.12 21.167 11.523 21.16 12.157 21.581L11.935 22.031C11.489 21.775 10.687 21.712 10.687 22.106C10.687 22.302 10.941 22.342 11.244 22.388ZM14.471 23.329L14.62 23.799C14.262 24.039 13.095 24.261 13.095 23.045V21.892H12.582V21.388H13.095V20.614H13.648V21.388H14.532V21.899H13.648V23.045C13.648 23.632 14.215 23.474 14.471 23.329Z" fill="white"/>
<path fill-rule="evenodd" clip-rule="evenodd" d="M17.372 22.873H15.517C15.672 23.612 16.468 23.653 16.994 23.211L17.251 23.626C16.495 24.296 14.971 24.061 14.971 22.645C14.971 21.858 15.483 21.312 16.198 21.312C16.873 21.312 17.372 21.755 17.372 22.873ZM15.537 22.423C15.591 22.065 15.814 21.823 16.178 21.823C16.528 21.823 16.765 22.03 16.826 22.423H15.537Z" fill="white"/>
<path d="M18.478 21.692C18.721 21.264 19.193 21.25 19.504 21.388L19.342 21.913C19.119 21.795 18.478 21.692 18.478 22.493V23.923H17.925V21.388H18.478V21.692ZM21.615 22.072C21.001 21.609 20.219 21.865 20.219 22.652C20.219 23.425 20.995 23.695 21.615 23.246L21.872 23.695C21.177 24.302 19.666 24.026 19.666 22.659C19.666 21.339 21.089 20.994 21.872 21.623L21.615 22.072Z" fill="white"/>
<path fill-rule="evenodd" clip-rule="evenodd" d="M24.165 21.388H24.718V23.929H24.165V23.612C23.659 24.358 22.148 23.978 22.148 22.652C22.148 21.36 23.605 20.932 24.165 21.692V21.388ZM22.715 22.652C22.715 22.202 22.991 21.844 23.45 21.844C23.909 21.844 24.206 22.203 24.206 22.652C24.206 23.122 23.909 23.46 23.45 23.46C22.991 23.46 22.715 23.1 22.715 22.652Z" fill="white"/>
<path d="M25.966 21.692C26.25 21.188 26.83 21.305 26.992 21.388L26.83 21.913C26.574 21.782 25.967 21.733 25.967 22.493V23.923H25.434V21.388H25.966V21.692Z" fill="white"/>
<path fill-rule="evenodd" clip-rule="evenodd" d="M29.178 20.359H29.711V23.929H29.178V23.612C28.678 24.351 27.161 23.992 27.161 22.652C27.161 21.34 28.624 20.939 29.178 21.692V20.359ZM28.463 23.459C28.908 23.459 29.218 23.121 29.218 22.652C29.218 22.202 28.908 21.844 28.463 21.844C28.003 21.844 27.707 22.203 27.707 22.652C27.707 23.101 28.004 23.459 28.463 23.459Z" fill="white"/>
<path d="M21.838 0C26.992 0 31.181 4.289 31.181 9.551C31.181 14.834 26.991 19.116 21.838 19.109C19.9974 19.1037 18.2005 18.5483 16.678 17.514C21.615 13.439 21.541 5.691 16.678 1.595C18.2007 0.562099 19.9979 0.00676981 21.838 0Z" fill="#E39D3E"/>
</g>
<defs>
<clipPath id="clip0_3039_953">
<rect width="32" height="24" fill="white"/>
</clipPath>
</defs>
</svg>
