<svg width="60" height="24" viewBox="0 0 60 24" fill="none" xmlns="http://www.w3.org/2000/svg">
<path d="M14.3868 9.54106H10.5411C10.5411 8.91015 10.4671 8.48679 10.3191 8.27101C10.0904 7.95216 9.45908 7.79265 8.42517 7.79248C7.42128 7.79248 6.75662 7.88435 6.43118 8.06803C6.10648 8.25263 5.94405 8.65375 5.94389 9.27137C5.94389 9.83035 6.08798 10.1983 6.37617 10.3751C6.58298 10.5003 6.85629 10.5739 7.19609 10.5959L7.9715 10.6506C9.63379 10.7605 10.6718 10.8379 11.0855 10.8828C12.4 11.0153 13.3529 11.3647 13.9441 11.9311C14.4092 12.373 14.6862 12.9505 14.7752 13.6636C14.8299 14.1436 14.8558 14.6266 14.8527 15.1097C14.8527 16.3464 14.7347 17.2516 14.4987 17.8253C14.0708 18.8783 13.1087 19.5442 11.6123 19.8228C10.9851 19.9406 10.0263 19.9996 8.73578 19.9998C6.58209 19.9998 5.08155 19.8712 4.23415 19.614C3.19432 19.2984 2.50851 18.6593 2.17672 17.6967C1.99172 17.1605 1.8996 16.2675 1.9004 15.0178H5.74565V15.3375C5.74565 16.0045 5.93714 16.4333 6.32011 16.6242C6.62119 16.7638 6.94938 16.8352 7.28125 16.8333H8.69516C9.4165 16.8333 9.87659 16.7963 10.0755 16.7222C10.4291 16.5835 10.6612 16.3594 10.7719 16.0501C10.8371 15.8092 10.8668 15.5601 10.8602 15.3106C10.8602 14.6347 10.6137 14.223 10.1208 14.0757C9.93576 14.0175 9.07832 13.9367 7.54849 13.8332C6.31939 13.7454 5.46583 13.6607 4.98779 13.579C3.72886 13.3435 2.89001 12.8585 2.47126 12.1238C2.10288 11.4991 1.91889 10.5543 1.91932 9.28922C1.91932 8.3266 2.01877 7.55477 2.21766 6.97377C2.41653 6.39275 2.73707 5.95155 3.17923 5.65017C3.82799 5.18682 4.65714 4.91477 5.6667 4.83407C6.50734 4.76082 7.43983 4.72389 8.46413 4.72326C10.0779 4.72326 11.2279 4.8156 11.9141 5.00028C13.5876 5.44985 14.4244 6.70915 14.4244 8.77822C14.4244 8.94789 14.4117 9.20195 14.3868 9.54106ZM31.2964 20V4.64221H38.9974C40.0536 4.64221 40.8588 4.7284 41.4133 4.9008C42.68 5.29742 43.5304 6.1098 43.9649 7.33794C44.1896 7.98261 44.3019 8.95294 44.3022 10.2489C44.3022 11.8068 44.1781 12.9264 43.9305 13.6077C43.4365 14.9554 42.4214 15.7305 40.8847 15.9331C40.7041 15.9635 39.9359 15.9899 38.5798 16.0121L37.8937 16.0349H35.4297V20H31.2964ZM35.43 12.4725H38.0068C38.8238 12.443 39.3214 12.3796 39.4996 12.2821C39.7437 12.1478 39.9079 11.8784 39.9894 11.4753C40.0417 11.2071 40.0679 10.8078 40.0679 10.2776C40.0679 9.62793 40.0158 9.14608 39.9116 8.83202C39.7631 8.39123 39.4068 8.12243 38.8432 8.02559C38.7313 8.01097 38.4641 8.00345 38.0414 8.00308H35.4302L35.43 12.4725ZM53.125 17.3459H47.5986L46.8561 20H42.5798L47.1945 4.64221H53.4294L58.1005 20H53.9138L53.125 17.3459ZM52.3045 14.3541L50.3674 7.69681L48.4881 14.3541H52.3045Z" fill="white"/>
<path d="M25.5913 6.80296C26.4015 6.80257 27.2015 6.98335 27.9329 7.33206C28.6641 7.68081 29.3081 8.18862 29.8178 8.81833L30.7087 6.90798C29.2537 5.53495 27.3274 4.77264 25.3269 4.77827C22.07 4.77827 19.2838 6.74564 18.1407 9.53029H16.4033L15.3772 11.7296H17.6122C17.5944 11.9345 17.5851 12.1402 17.5843 12.3459C17.5844 12.5955 17.597 12.8449 17.6222 13.0932H16.4992L15.4734 15.2931H18.1937C19.3695 18.0073 22.1208 19.9127 25.3266 19.9127C26.8766 19.9164 28.3928 19.46 29.6833 18.6014V15.9054C29.1302 16.5376 28.4381 17.0331 27.6614 17.353C26.4899 17.8355 25.1865 17.8938 23.9766 17.5177C22.7666 17.1416 21.726 16.3548 21.0343 15.2931H26.7302L27.7558 13.0932H20.1964C20.1296 12.6417 20.1188 12.1835 20.1643 11.7293H28.3921L29.4177 9.53029H20.8751C21.3526 8.70161 22.0398 8.01326 22.8678 7.53446C23.6957 7.05566 24.6348 6.80352 25.5913 6.80296Z" fill="#FFBE00"/>
<path d="M25.5913 6.8688C26.3917 6.86802 27.1822 7.04647 27.9048 7.39105C28.6273 7.73564 29.2635 8.23762 29.7667 8.86016L29.833 8.94215L29.8781 8.84647L30.769 6.93605L30.7888 6.89247L30.7545 6.85974C29.4449 5.63273 27.7585 4.88536 25.9699 4.7394C24.1812 4.59344 22.3958 5.05749 20.9046 6.05596C19.642 6.90046 18.6588 8.10109 18.0799 9.50542L18.1407 9.46447H16.3608L16.3433 9.50231L15.3175 11.702L15.2734 11.796H17.6123L17.5465 11.7243C17.5288 11.9312 17.5195 12.1386 17.5187 12.3462C17.5187 12.5931 17.5313 12.8472 17.5565 13.1003L17.6223 13.0277H16.4576L16.4401 13.0656L15.4137 15.2653L15.3701 15.3592H18.1939L18.1334 15.3194C19.3596 18.1497 22.1834 19.9787 25.3269 19.9787C26.8897 19.9828 28.4186 19.5228 29.7197 18.6569L29.7487 18.6376V15.7304L29.6333 15.862C29.0869 16.4866 28.4033 16.976 27.636 17.2919C26.4786 17.7685 25.1911 17.826 23.9958 17.4545C22.8005 17.083 21.7724 16.3058 21.0891 15.2571L21.0341 15.3595H26.7725L26.79 15.3217L27.8158 13.1214L27.86 13.0278H20.1961L20.2616 13.0846C20.1955 12.6383 20.1848 12.1855 20.2297 11.7365L20.1639 11.7959H28.4341L28.4516 11.758L29.4773 9.55842L29.5214 9.46449H20.875L20.9318 9.56365C21.4054 8.74663 22.0848 8.06794 22.9023 7.59513C23.7198 7.12233 24.6469 6.87191 25.5913 6.8688ZM20.875 9.5964H29.4172L29.3572 9.50247L28.332 11.7021L28.3918 11.6642H20.1042L20.0979 11.7239C20.0528 12.1834 20.0638 12.6468 20.1307 13.1036L20.1394 13.1604H27.7558L27.6963 13.0662L26.6706 15.2658L26.7299 15.228H20.9116L20.9789 15.3298C21.4431 16.042 22.066 16.637 22.7986 17.0682C23.5313 17.4993 24.3539 17.755 25.2019 17.815C26.0499 17.8751 26.9003 17.738 27.6864 17.4144C28.4725 17.0908 29.173 16.5895 29.733 15.9499L29.6172 15.9063V18.6023L29.6466 18.5479C28.3671 19.399 26.8638 19.8513 25.3271 19.8474C22.236 19.8474 19.4602 18.0494 18.255 15.2674L18.2375 15.2279H15.4737L15.5339 15.3226L16.559 13.1213L16.499 13.1599H17.6956L17.688 13.0868C17.6631 12.8382 17.6501 12.5885 17.6501 12.3462C17.6501 12.1599 17.6595 11.9598 17.6779 11.7354L17.6838 11.664H15.3774L15.4368 11.758L16.4626 9.55835L16.4033 9.59619H18.1846L18.2012 9.55526C18.7708 8.17515 19.7373 6.99524 20.9783 6.16513C22.4446 5.18372 24.2001 4.72766 25.9587 4.87122C27.7173 5.01477 29.3756 5.74949 30.6634 6.95572L30.6487 6.87967L29.7583 8.79053L29.8694 8.77647C29.3066 8.08197 28.5831 7.53495 27.7614 7.18268C26.5214 6.651 25.1293 6.59301 23.8494 7.0197C22.5694 7.4464 21.4906 8.32809 20.8177 9.4975L20.7604 9.59663L20.875 9.5964Z" fill="#101A8E"/>
</svg>
