<svg width="74" height="24" viewBox="0 0 74 24" fill="none" xmlns="http://www.w3.org/2000/svg">
<path d="M10.396 21.952C15.8923 21.952 20.348 17.4963 20.348 12C20.348 6.50365 15.8923 2.04797 10.396 2.04797C4.89965 2.04797 0.44397 6.50365 0.44397 12C0.44397 17.4963 4.89965 21.952 10.396 21.952Z" fill="#26A17B"/>
<path d="M11.4568 12.9184C11.388 12.9184 11.0328 12.944 10.2424 12.944C9.60237 12.944 9.16717 12.9264 9.01037 12.9184C6.57997 12.8112 4.76397 12.3888 4.76397 11.8816C4.76397 11.3744 6.58157 10.952 9.01037 10.848V12.4976C9.17037 12.5088 9.62477 12.536 10.2536 12.536C11.0088 12.536 11.3864 12.504 11.4568 12.4976V10.848C13.8824 10.9568 15.6904 11.3792 15.6904 11.8848C15.6904 12.3904 13.884 12.8112 11.4568 12.928M11.4568 10.688V9.19677H14.844V6.94237H5.62797V9.19677H9.01197V10.6752C6.26157 10.8016 4.19437 11.3456 4.19437 11.9984C4.19437 12.6512 6.26317 13.1952 9.01197 13.3232V18.0624H11.4584V13.3232C14.204 13.1968 16.268 12.6528 16.268 12C16.268 11.3472 14.204 10.8032 11.4584 10.6768M28.8008 7.55837V9.94877H31.1256V11.7424H28.7864V15.3792C28.7864 16.1792 29.2296 16.5744 29.8792 16.5744C30.2299 16.5644 30.5741 16.477 30.8872 16.3184L31.468 18.0944C30.9209 18.322 30.3356 18.4437 29.7432 18.4528C27.916 18.5216 26.7208 17.48 26.7208 15.3792V11.7424H25.1496V9.94877H26.7208V7.78077L28.8008 7.55837ZM68.8536 9.83677L69.0136 10.8096C69.6632 9.76797 70.5336 9.61437 71.388 9.61437C72.2424 9.61437 73.0952 9.95517 73.556 10.4144L72.604 12.2256C72.402 12.0398 72.1653 11.8958 71.9074 11.8019C71.6496 11.708 71.3757 11.666 71.1016 11.6784C70.0088 11.6784 69.0008 12.2592 69.0008 13.8128V18.2528H66.9208V9.83357L68.8536 9.83677ZM63.748 13.064C63.612 11.968 62.7576 11.424 61.564 11.424C60.444 11.424 59.5144 11.9712 59.2072 13.064H63.748ZM59.172 14.7888C59.308 15.8304 60.2136 16.5824 61.6824 16.5824C62.4504 16.5824 63.4584 16.2912 63.9368 15.7968L65.268 17.112C64.3816 18.0336 62.9288 18.4784 61.6472 18.4784C58.7448 18.4784 57.0184 16.6848 57.0184 13.9872C57.0184 11.4272 58.7624 9.58077 61.4984 9.58077C64.3176 9.58077 66.0776 11.3232 65.7512 14.7888H59.172ZM49.9848 6.30877V10.9792C50.7368 10.0064 51.6584 9.71517 52.6152 9.71517C55.0056 9.71517 56.0648 11.3376 56.0648 13.8144V18.2544H53.9848V13.832C53.9848 12.2944 53.1848 11.6464 52.0648 11.6464C50.8344 11.6464 49.9848 12.688 49.9848 13.952V18.256H47.9048V6.30237L49.9848 6.30877ZM44.452 7.47037V9.85277H46.7752V11.648H44.444V15.2832C44.444 16.0832 44.8888 16.4784 45.5368 16.4784C45.8875 16.4684 46.2317 16.381 46.5448 16.2224L47.1256 17.9984C46.5785 18.226 45.9932 18.3477 45.4008 18.3568C43.5736 18.4256 42.3784 17.3824 42.3784 15.2832V11.648H40.8072V9.85277H42.364V7.68477L44.452 7.47037ZM38.692 13.0704C38.556 11.9776 37.7016 11.4304 36.5064 11.4304C35.3864 11.4304 34.4568 11.9776 34.1496 13.0704H38.692ZM34.116 14.7952C34.252 15.8368 35.1576 16.5888 36.6264 16.5888C37.3944 16.5888 38.4024 16.2976 38.8808 15.8032L40.212 17.1184C39.324 18.0336 37.884 18.4784 36.604 18.4784C33.692 18.4784 31.964 16.6848 31.964 13.9872C31.964 11.4272 33.7064 9.58077 36.444 9.58077C39.2616 9.58077 41.02 11.3232 40.6968 14.7888L34.116 14.7952Z" fill="white"/>
</svg>
