<svg width="47" height="24" viewBox="0 0 47 24" fill="none" xmlns="http://www.w3.org/2000/svg">
<path d="M4.932 19.7794L3.20514 7.22743L7.396 9.89714L0.342285 4.23543H7.12286L7.80857 11.6183C7.89429 12.496 7.964 13.3577 8.02914 14.2434C8.42316 13.3022 8.8362 12.3691 9.268 11.4446L12.6257 4.23543H17.084L9.17657 19.7783L4.932 19.7794ZM16.1377 19.7794L19.0509 4.23657H23.0406L20.1331 19.7794H16.1377ZM26.876 20C25.0543 20 23.4086 19.576 22.4749 18.8651L22.2006 18.6537L23.5491 15.28L24.0006 15.5543C24.9069 16.1029 26.0634 16.424 27.1754 16.424C28.0246 16.424 29.0223 16.0903 29.0223 15.1589C29.0223 14.672 28.7434 14.2446 27.316 13.496C25.8029 12.6674 24.0749 11.4331 24.0749 9.208C24.0749 6.14286 26.6017 4 30.2189 4C31.6989 4 32.884 4.26286 33.836 4.79429L34.1731 4.98286L32.9 8.44571L32.4429 8.19314C31.7052 7.80712 30.8857 7.60334 30.0531 7.59886C28.7686 7.59886 28.2234 8.16457 28.2234 8.68686C28.2234 9.248 28.9297 9.69257 30.0977 10.3554C32.1766 11.4617 33.1903 12.8583 33.1903 14.6183C33.1903 17.8366 30.6554 19.9989 26.8771 19.9989L26.876 20Z" fill="#5465D6"/>
<path fill-rule="evenodd" clip-rule="evenodd" d="M42.5114 19.7794L42.2131 15.9829H38.7549L37.0406 19.7794H32.7617L40.2234 4.23657H44.8611L46.6577 19.7794H42.5114ZM41.6909 9.016C41.5309 9.432 41.3686 9.82743 41.2074 10.1771L40.0669 12.6891H42.0074L41.7674 10.0309C41.7472 9.73126 41.7248 9.43183 41.7 9.13257V9.13029L41.6909 9.016Z" fill="#5465D6"/>
</svg>
